<svg xmlns="http://www.w3.org/2000/svg" xmlns:xlink="http://www.w3.org/1999/xlink" width="500" zoomAndPan="magnify" viewBox="0 0 375 187.499995" height="250" preserveAspectRatio="xMidYMid meet" version="1.0"><defs><g/><clipPath id="e1730505d5"><path d="M 0.5 31.230469 L 150.101562 31.230469 L 150.101562 156 L 0.5 156 Z M 0.5 31.230469 " clip-rule="nonzero"/></clipPath></defs><g clip-path="url(#e1730505d5)"><path fill="#ffffff" d="M 75.300781 31.230469 C 56.429688 31.230469 34.175781 46.316406 27.515625 73.925781 C 24.929688 72.335938 21.699219 71.082031 17.738281 71.082031 C 8.570312 71.082031 0.574219 79.390625 0.574219 91.011719 C 0.574219 97.9375 4.058594 104.664062 8.523438 110.292969 C 12.519531 115.335938 17.246094 119.828125 23.3125 120.714844 C 30.546875 139.914062 51.070312 155.773438 75.300781 155.773438 C 99.53125 155.773438 120.050781 139.914062 127.285156 120.714844 C 133.351562 119.828125 138.078125 115.335938 142.074219 110.292969 C 146.539062 104.664062 150.023438 97.9375 150.023438 91.011719 C 150.023438 79.390625 142.027344 71.082031 132.863281 71.082031 C 128.898438 71.082031 125.667969 72.335938 123.082031 73.925781 C 116.421875 46.316406 94.171875 31.230469 75.300781 31.230469 Z M 60.355469 76.066406 C 66.34375 76.066406 71.648438 78.089844 75.300781 81.222656 C 78.949219 78.089844 84.257812 76.066406 90.246094 76.066406 C 101.25 76.066406 110.171875 82.753906 110.171875 91.011719 C 110.171875 94.402344 108.609375 97.496094 106.074219 100 C 111.75 104.265625 115.152344 109.710938 115.152344 115.664062 C 115.152344 129.285156 97.308594 145.808594 75.300781 145.808594 C 53.289062 145.808594 35.445312 129.285156 35.445312 115.664062 C 35.445312 109.710938 38.847656 104.265625 44.523438 100 C 41.988281 97.496094 40.425781 94.402344 40.425781 91.011719 C 40.425781 82.753906 49.347656 76.066406 60.355469 76.066406 Z M 17.738281 81.046875 C 21.945312 81.046875 24.742188 84.1875 25.726562 85.472656 C 25.597656 87.285156 25.480469 89.113281 25.480469 91.011719 C 25.480469 95.5 20.5 96.605469 20.5 105.953125 C 20.5 106.722656 20.589844 107.484375 20.636719 108.25 C 19.199219 107.152344 17.683594 105.820312 16.328125 104.105469 C 12.890625 99.773438 10.535156 94.046875 10.535156 91.011719 C 10.535156 83.371094 14.078125 81.046875 17.738281 81.046875 Z M 132.863281 81.046875 C 136.519531 81.046875 140.0625 83.371094 140.0625 91.011719 C 140.0625 94.046875 137.707031 99.773438 134.273438 104.105469 C 132.914062 105.820312 131.398438 107.152344 129.960938 108.25 C 130.007812 107.484375 130.097656 106.722656 130.097656 105.953125 C 130.097656 96.605469 125.117188 95.5 125.117188 91.011719 C 125.117188 89.113281 125.003906 87.285156 124.875 85.472656 C 125.855469 84.1875 128.65625 81.046875 132.863281 81.046875 Z M 60.355469 86.027344 C 60.027344 86.027344 59.703125 86.058594 59.382812 86.125 C 59.0625 86.1875 58.75 86.28125 58.449219 86.40625 C 58.144531 86.53125 57.859375 86.6875 57.585938 86.867188 C 57.3125 87.050781 57.0625 87.257812 56.832031 87.488281 C 56.601562 87.71875 56.394531 87.96875 56.210938 88.242188 C 56.03125 88.515625 55.875 88.800781 55.75 89.101562 C 55.625 89.40625 55.53125 89.71875 55.46875 90.039062 C 55.402344 90.359375 55.371094 90.683594 55.371094 91.011719 C 55.371094 91.335938 55.402344 91.660156 55.46875 91.980469 C 55.53125 92.300781 55.625 92.613281 55.75 92.917969 C 55.875 93.21875 56.03125 93.503906 56.210938 93.777344 C 56.394531 94.050781 56.601562 94.300781 56.832031 94.53125 C 57.0625 94.765625 57.3125 94.96875 57.585938 95.152344 C 57.859375 95.332031 58.144531 95.488281 58.449219 95.613281 C 58.75 95.738281 59.0625 95.832031 59.382812 95.894531 C 59.703125 95.960938 60.027344 95.992188 60.355469 95.992188 C 60.679688 95.992188 61.003906 95.960938 61.324219 95.894531 C 61.648438 95.832031 61.957031 95.738281 62.261719 95.613281 C 62.5625 95.488281 62.851562 95.332031 63.121094 95.152344 C 63.394531 94.96875 63.644531 94.765625 63.875 94.53125 C 64.109375 94.300781 64.316406 94.050781 64.496094 93.777344 C 64.679688 93.503906 64.832031 93.21875 64.957031 92.917969 C 65.082031 92.613281 65.175781 92.300781 65.238281 91.980469 C 65.304688 91.660156 65.335938 91.335938 65.335938 91.011719 C 65.335938 90.683594 65.304688 90.359375 65.238281 90.039062 C 65.175781 89.71875 65.082031 89.40625 64.957031 89.101562 C 64.832031 88.800781 64.679688 88.515625 64.496094 88.242188 C 64.316406 87.96875 64.109375 87.71875 63.875 87.488281 C 63.644531 87.257812 63.394531 87.050781 63.121094 86.867188 C 62.851562 86.6875 62.5625 86.53125 62.261719 86.40625 C 61.957031 86.28125 61.648438 86.1875 61.324219 86.125 C 61.003906 86.058594 60.679688 86.027344 60.355469 86.027344 Z M 90.246094 86.027344 C 89.917969 86.027344 89.59375 86.058594 89.273438 86.125 C 88.953125 86.1875 88.640625 86.28125 88.339844 86.40625 C 88.035156 86.53125 87.75 86.6875 87.476562 86.867188 C 87.203125 87.050781 86.953125 87.257812 86.722656 87.488281 C 86.492188 87.71875 86.285156 87.96875 86.101562 88.242188 C 85.921875 88.515625 85.765625 88.800781 85.640625 89.101562 C 85.515625 89.40625 85.421875 89.71875 85.359375 90.039062 C 85.292969 90.359375 85.261719 90.683594 85.261719 91.011719 C 85.261719 91.335938 85.292969 91.660156 85.359375 91.980469 C 85.421875 92.300781 85.515625 92.613281 85.640625 92.917969 C 85.765625 93.21875 85.921875 93.503906 86.101562 93.777344 C 86.285156 94.050781 86.492188 94.300781 86.722656 94.53125 C 86.953125 94.765625 87.203125 94.96875 87.476562 95.152344 C 87.75 95.332031 88.035156 95.488281 88.339844 95.613281 C 88.640625 95.738281 88.953125 95.832031 89.273438 95.894531 C 89.59375 95.960938 89.917969 95.992188 90.246094 95.992188 C 90.570312 95.992188 90.894531 95.960938 91.214844 95.894531 C 91.535156 95.832031 91.847656 95.738281 92.152344 95.613281 C 92.453125 95.488281 92.738281 95.332031 93.011719 95.152344 C 93.285156 94.96875 93.535156 94.765625 93.765625 94.53125 C 94 94.300781 94.203125 94.050781 94.386719 93.777344 C 94.566406 93.503906 94.722656 93.21875 94.847656 92.917969 C 94.972656 92.613281 95.066406 92.300781 95.128906 91.980469 C 95.195312 91.660156 95.226562 91.335938 95.226562 91.011719 C 95.226562 90.683594 95.195312 90.359375 95.128906 90.039062 C 95.066406 89.71875 94.972656 89.40625 94.847656 89.101562 C 94.722656 88.800781 94.566406 88.515625 94.386719 88.242188 C 94.203125 87.96875 94 87.71875 93.765625 87.488281 C 93.535156 87.257812 93.285156 87.050781 93.011719 86.867188 C 92.738281 86.6875 92.453125 86.53125 92.152344 86.40625 C 91.847656 86.28125 91.535156 86.1875 91.214844 86.125 C 90.894531 86.058594 90.570312 86.027344 90.246094 86.027344 Z M 72.808594 103.464844 C 68.683594 103.464844 65.335938 106.8125 65.335938 110.9375 L 85.261719 110.9375 C 85.261719 106.8125 81.914062 103.464844 77.789062 103.464844 C 76.914062 103.464844 76.082031 103.644531 75.300781 103.921875 C 74.515625 103.644531 73.6875 103.464844 72.808594 103.464844 Z M 72.808594 103.464844 " fill-opacity="1" fill-rule="nonzero"/></g><g fill="#ffffff" fill-opacity="1"><g transform="translate(156.642891, 98.283495)"><g><path d="M 5.601562 -20.148438 C 4.433594 -20.015625 3.386719 -19.867188 2.472656 -19.679688 C 2.417969 -19.652344 2.363281 -19.625 2.3125 -19.613281 C 2.257812 -19.597656 2.203125 -19.585938 2.148438 -19.574219 C 1.71875 -19.410156 1.398438 -19.195312 1.210938 -18.902344 C 1.019531 -18.605469 0.859375 -18.257812 0.738281 -17.867188 C 0.726562 -17.824219 0.699219 -17.746094 0.671875 -17.636719 C 0.644531 -17.542969 0.632812 -17.464844 0.617188 -17.410156 C 0.605469 -17.371094 0.589844 -17.328125 0.578125 -17.289062 C 0.5625 -17.25 0.5625 -17.222656 0.5625 -17.195312 C 0.550781 -17.140625 0.539062 -17.101562 0.539062 -17.074219 C 0.523438 -17.035156 0.523438 -16.992188 0.523438 -16.964844 C 0.441406 -16.5625 0.375 -16.09375 0.324219 -15.554688 C 0.160156 -13.703125 0.148438 -11.769531 0.28125 -9.753906 C 0.417969 -7.738281 0.699219 -5.832031 1.128906 -4.03125 C 1.210938 -3.613281 1.316406 -3.195312 1.449219 -2.78125 C 1.585938 -2.363281 1.746094 -1.976562 1.949219 -1.597656 C 2.296875 -0.898438 2.742188 -0.457031 3.265625 -0.269531 C 3.789062 -0.0820312 4.445312 0 5.226562 0 L 5.882812 0 C 6.164062 0 6.382812 -0.0273438 6.527344 -0.0664062 C 7.429688 -0.203125 8.34375 -0.335938 9.28125 -0.46875 C 10.222656 -0.605469 11.136719 -0.765625 12.035156 -0.941406 C 12.628906 -1.035156 13.273438 -1.183594 13.996094 -1.371094 C 14.667969 -1.542969 15.261719 -1.71875 15.742188 -1.90625 C 17.058594 -2.390625 18.175781 -3.089844 19.117188 -4.015625 C 20.054688 -4.929688 20.484375 -6.152344 20.417969 -7.671875 C 20.390625 -7.859375 20.363281 -8.046875 20.339844 -8.234375 C 20.175781 -8.90625 19.867188 -9.511719 19.410156 -10.0625 C 18.941406 -10.613281 18.429688 -11.097656 17.894531 -11.511719 C 17.746094 -11.621094 17.636719 -11.6875 17.570312 -11.742188 C 17.035156 -12.089844 16.441406 -12.414062 15.769531 -12.695312 C 15.703125 -12.707031 15.636719 -12.722656 15.570312 -12.75 C 15.503906 -12.773438 15.433594 -12.800781 15.382812 -12.828125 C 15.300781 -12.84375 15.234375 -12.855469 15.167969 -12.882812 C 15.097656 -12.910156 15.03125 -12.9375 14.976562 -12.964844 C 15.097656 -13.042969 15.191406 -13.109375 15.246094 -13.164062 C 15.355469 -13.246094 15.433594 -13.324219 15.488281 -13.378906 C 16.105469 -13.929688 16.5625 -14.546875 16.871094 -15.246094 C 16.898438 -15.3125 16.941406 -15.394531 16.964844 -15.476562 C 17.316406 -16.390625 17.25 -17.179688 16.777344 -17.867188 C 16.308594 -18.550781 15.691406 -19.144531 14.925781 -19.625 C 14.710938 -19.746094 14.414062 -19.867188 14.039062 -20.003906 C 13.714844 -20.082031 13.324219 -20.175781 12.855469 -20.257812 C 12.453125 -20.3125 11.984375 -20.351562 11.445312 -20.390625 C 10.949219 -20.417969 10.453125 -20.433594 9.941406 -20.433594 C 9.363281 -20.433594 8.851562 -20.417969 8.410156 -20.390625 C 7.496094 -20.339844 6.570312 -20.257812 5.601562 -20.148438 Z M 6.152344 -14.292969 L 6.152344 -14.574219 C 6.152344 -14.898438 6.152344 -15.21875 6.164062 -15.542969 C 6.164062 -15.863281 6.179688 -16.199219 6.207031 -16.523438 C 6.207031 -16.523438 6.21875 -16.550781 6.21875 -16.578125 C 6.21875 -16.578125 6.234375 -16.605469 6.234375 -16.628906 C 6.246094 -16.644531 6.261719 -16.65625 6.261719 -16.671875 L 6.261719 -16.683594 C 6.261719 -16.683594 6.273438 -16.699219 6.273438 -16.710938 L 6.285156 -16.722656 C 6.285156 -16.722656 6.285156 -16.738281 6.300781 -16.75 L 6.3125 -16.765625 L 6.3125 -16.820312 L 6.339844 -16.84375 C 6.488281 -16.992188 6.664062 -17.101562 6.851562 -17.15625 C 7.105469 -17.234375 7.320312 -17.273438 7.480469 -17.300781 C 7.480469 -17.300781 7.496094 -17.300781 7.507812 -17.300781 C 7.507812 -17.300781 7.523438 -17.316406 7.550781 -17.316406 L 7.699219 -17.316406 C 7.710938 -17.316406 7.738281 -17.328125 7.765625 -17.328125 C 8.542969 -17.328125 9.109375 -17.074219 9.46875 -16.589844 C 9.46875 -16.578125 9.46875 -16.5625 9.484375 -16.5625 C 9.484375 -16.550781 9.496094 -16.550781 9.511719 -16.550781 C 9.511719 -16.535156 9.511719 -16.523438 9.539062 -16.507812 C 9.832031 -16 9.820312 -15.476562 9.511719 -14.9375 C 9.203125 -14.402344 8.785156 -14.011719 8.25 -13.78125 C 8.234375 -13.78125 8.207031 -13.769531 8.152344 -13.753906 C 8.128906 -13.742188 8.113281 -13.730469 8.101562 -13.730469 C 8.085938 -13.714844 8.074219 -13.714844 8.074219 -13.714844 C 8.046875 -13.714844 8.007812 -13.703125 7.980469 -13.6875 C 7.683594 -13.582031 7.320312 -13.527344 6.917969 -13.515625 C 6.515625 -13.488281 6.273438 -13.660156 6.207031 -14.011719 L 6.179688 -14.105469 C 6.179688 -14.105469 6.164062 -14.117188 6.164062 -14.144531 C 6.164062 -14.160156 6.164062 -14.171875 6.164062 -14.199219 C 6.164062 -14.199219 6.152344 -14.210938 6.152344 -14.238281 C 6.152344 -14.253906 6.152344 -14.265625 6.152344 -14.292969 Z M 7.832031 -3.078125 C 7.804688 -3.15625 7.777344 -3.238281 7.75 -3.316406 C 7.722656 -3.398438 7.699219 -3.492188 7.671875 -3.574219 C 7.601562 -3.722656 7.550781 -3.894531 7.496094 -4.082031 C 7.226562 -4.957031 7.011719 -5.871094 6.835938 -6.835938 C 6.785156 -7.078125 6.742188 -7.28125 6.730469 -7.414062 C 6.703125 -7.507812 6.757812 -7.601562 6.863281 -7.699219 C 6.945312 -7.777344 7.078125 -7.859375 7.292969 -7.953125 C 7.480469 -8.007812 7.699219 -8.074219 7.9375 -8.152344 C 8.421875 -8.273438 8.960938 -8.355469 9.550781 -8.410156 C 9.820312 -8.4375 10.101562 -8.449219 10.382812 -8.449219 C 11.121094 -8.449219 11.769531 -8.273438 12.332031 -7.953125 C 12.894531 -7.628906 13.273438 -7.132812 13.460938 -6.488281 C 13.460938 -6.460938 13.460938 -6.433594 13.472656 -6.40625 C 13.472656 -6.382812 13.488281 -6.367188 13.5 -6.355469 C 13.5 -6.328125 13.5 -6.273438 13.527344 -6.207031 C 13.660156 -5.265625 13.3125 -4.511719 12.480469 -3.976562 C 11.984375 -3.652344 11.417969 -3.425781 10.785156 -3.292969 C 10.15625 -3.15625 9.550781 -3.089844 8.972656 -3.0625 C 8.636719 -3.035156 8.410156 -3.035156 8.289062 -3.050781 C 8.128906 -3.050781 7.964844 -3.050781 7.832031 -3.078125 Z M 7.832031 -3.078125 "/></g></g></g><g fill="#ffffff" fill-opacity="1"><g transform="translate(178.181667, 98.283495)"><g><path d="M 11.875 -5.050781 C 12.25 -3.800781 12.574219 -2.6875 12.816406 -1.691406 C 12.976562 -0.941406 13.257812 -0.523438 13.6875 -0.417969 C 14.105469 -0.308594 14.617188 -0.347656 15.207031 -0.511719 C 15.609375 -0.617188 16.039062 -0.777344 16.523438 -1.007812 C 16.992188 -1.222656 17.382812 -1.492188 17.707031 -1.800781 C 17.945312 -2.015625 18.121094 -2.351562 18.203125 -2.808594 C 18.269531 -3.34375 18.257812 -4.003906 18.148438 -4.796875 C 18.042969 -5.574219 17.746094 -6.769531 17.261719 -8.355469 C 16.777344 -9.941406 16.214844 -11.554688 15.542969 -13.21875 C 14.871094 -14.882812 14.132812 -16.402344 13.339844 -17.785156 C 12.546875 -19.15625 11.78125 -20.042969 11.054688 -20.445312 C 10.625 -20.796875 9.996094 -21.035156 9.160156 -21.171875 C 8.316406 -21.304688 7.644531 -21.320312 7.132812 -21.210938 C 6.621094 -21.105469 6.179688 -20.835938 5.804688 -20.417969 C 5.425781 -20.003906 5.105469 -19.585938 4.847656 -19.183594 C 4.324219 -18.375 3.789062 -17.300781 3.238281 -15.984375 C 2.6875 -14.65625 2.175781 -13.273438 1.71875 -11.835938 C 1.261719 -10.382812 0.875 -8.988281 0.5625 -7.617188 C 0.242188 -6.246094 0.0664062 -5.117188 0.0273438 -4.230469 C 0 -3.910156 0 -3.574219 0.0117188 -3.222656 C 0.0273438 -2.875 0.0820312 -2.550781 0.160156 -2.242188 C 0.253906 -1.828125 0.441406 -1.503906 0.726562 -1.277344 C 1.046875 -1.007812 1.464844 -0.777344 1.960938 -0.589844 C 2.457031 -0.402344 2.914062 -0.28125 3.332031 -0.214844 C 3.921875 -0.109375 4.433594 -0.121094 4.835938 -0.253906 C 5.238281 -0.390625 5.507812 -0.832031 5.628906 -1.597656 C 5.734375 -2.378906 5.882812 -3.265625 6.097656 -4.246094 C 6.90625 -4.191406 7.898438 -4.257812 9.082031 -4.433594 C 10.261719 -4.59375 11.203125 -4.808594 11.875 -5.050781 Z M 6.742188 -6.863281 C 7.308594 -8.90625 7.953125 -10.800781 8.703125 -12.546875 C 9.566406 -10.90625 10.34375 -9.175781 11.042969 -7.375 C 9.539062 -7.011719 8.113281 -6.835938 6.742188 -6.863281 Z M 6.742188 -6.863281 "/></g></g></g><g fill="#ffffff" fill-opacity="1"><g transform="translate(197.397376, 98.283495)"><g><path d="M 7.160156 -20.027344 C 6.972656 -20.148438 6.648438 -20.285156 6.191406 -20.417969 C 5.816406 -20.5 5.386719 -20.554688 4.929688 -20.59375 C 4.460938 -20.632812 4.042969 -20.605469 3.679688 -20.511719 C 3.359375 -20.433594 3.089844 -20.246094 2.847656 -19.949219 C 2.527344 -19.546875 2.242188 -19.023438 2.015625 -18.375 C 1.71875 -17.625 1.4375 -16.644531 1.183594 -15.421875 C 0.925781 -14.1875 0.710938 -12.910156 0.550781 -11.566406 C 0.390625 -10.222656 0.28125 -8.90625 0.226562 -7.628906 C 0.175781 -6.355469 0.214844 -5.292969 0.347656 -4.460938 C 0.402344 -4.03125 0.496094 -3.574219 0.644531 -3.089844 C 0.792969 -2.605469 1.0625 -2.230469 1.4375 -1.960938 C 1.855469 -1.640625 2.753906 -1.355469 4.152344 -1.128906 C 5.535156 -0.898438 6.273438 -1.222656 6.382812 -2.082031 C 6.394531 -2.3125 6.382812 -2.550781 6.328125 -2.792969 C 6.273438 -3.035156 6.246094 -3.277344 6.21875 -3.519531 C 5.964844 -5.078125 5.871094 -6.785156 5.949219 -8.652344 C 6.03125 -10.519531 6.21875 -12.359375 6.542969 -14.171875 C 7.777344 -12.34375 8.851562 -10.570312 9.78125 -8.851562 C 10.707031 -7.132812 11.554688 -5.226562 12.304688 -3.101562 C 12.359375 -2.671875 12.464844 -2.242188 12.628906 -1.8125 C 12.773438 -1.371094 13.03125 -1.019531 13.378906 -0.765625 C 13.582031 -0.605469 13.945312 -0.441406 14.46875 -0.28125 C 14.992188 -0.121094 15.527344 -0.0117188 16.078125 0.0390625 C 16.628906 0.09375 17.128906 0.0546875 17.570312 -0.0664062 C 18.015625 -0.1875 18.257812 -0.46875 18.308594 -0.898438 C 18.324219 -1.113281 18.308594 -1.355469 18.269531 -1.597656 C 18.214844 -1.839844 18.175781 -2.082031 18.148438 -2.324219 C 17.800781 -4.527344 17.757812 -7 18.042969 -9.753906 C 18.324219 -12.492188 18.792969 -14.992188 19.464844 -17.25 C 19.652344 -17.894531 19.597656 -18.351562 19.332031 -18.617188 C 19.046875 -18.886719 18.644531 -19.089844 18.121094 -19.222656 C 17.746094 -19.304688 17.328125 -19.359375 16.859375 -19.398438 C 16.390625 -19.4375 15.972656 -19.410156 15.609375 -19.332031 C 15.300781 -19.238281 15.03125 -19.046875 14.789062 -18.753906 C 14.480469 -18.363281 14.199219 -17.839844 13.945312 -17.195312 C 13.730469 -16.671875 13.527344 -16.027344 13.339844 -15.261719 C 13.152344 -14.496094 12.988281 -13.675781 12.84375 -12.789062 C 11.59375 -14.777344 10.34375 -16.550781 9.109375 -18.109375 C 8.867188 -18.390625 8.609375 -18.671875 8.355469 -18.96875 C 8.085938 -19.25 7.832031 -19.503906 7.5625 -19.746094 C 7.429688 -19.855469 7.292969 -19.949219 7.160156 -20.027344 Z M 7.160156 -20.027344 "/></g></g></g><g fill="#ffffff" fill-opacity="1"><g transform="translate(218.11704, 98.283495)"><g><path d="M 11.875 -5.050781 C 12.25 -3.800781 12.574219 -2.6875 12.816406 -1.691406 C 12.976562 -0.941406 13.257812 -0.523438 13.6875 -0.417969 C 14.105469 -0.308594 14.617188 -0.347656 15.207031 -0.511719 C 15.609375 -0.617188 16.039062 -0.777344 16.523438 -1.007812 C 16.992188 -1.222656 17.382812 -1.492188 17.707031 -1.800781 C 17.945312 -2.015625 18.121094 -2.351562 18.203125 -2.808594 C 18.269531 -3.34375 18.257812 -4.003906 18.148438 -4.796875 C 18.042969 -5.574219 17.746094 -6.769531 17.261719 -8.355469 C 16.777344 -9.941406 16.214844 -11.554688 15.542969 -13.21875 C 14.871094 -14.882812 14.132812 -16.402344 13.339844 -17.785156 C 12.546875 -19.15625 11.78125 -20.042969 11.054688 -20.445312 C 10.625 -20.796875 9.996094 -21.035156 9.160156 -21.171875 C 8.316406 -21.304688 7.644531 -21.320312 7.132812 -21.210938 C 6.621094 -21.105469 6.179688 -20.835938 5.804688 -20.417969 C 5.425781 -20.003906 5.105469 -19.585938 4.847656 -19.183594 C 4.324219 -18.375 3.789062 -17.300781 3.238281 -15.984375 C 2.6875 -14.65625 2.175781 -13.273438 1.71875 -11.835938 C 1.261719 -10.382812 0.875 -8.988281 0.5625 -7.617188 C 0.242188 -6.246094 0.0664062 -5.117188 0.0273438 -4.230469 C 0 -3.910156 0 -3.574219 0.0117188 -3.222656 C 0.0273438 -2.875 0.0820312 -2.550781 0.160156 -2.242188 C 0.253906 -1.828125 0.441406 -1.503906 0.726562 -1.277344 C 1.046875 -1.007812 1.464844 -0.777344 1.960938 -0.589844 C 2.457031 -0.402344 2.914062 -0.28125 3.332031 -0.214844 C 3.921875 -0.109375 4.433594 -0.121094 4.835938 -0.253906 C 5.238281 -0.390625 5.507812 -0.832031 5.628906 -1.597656 C 5.734375 -2.378906 5.882812 -3.265625 6.097656 -4.246094 C 6.90625 -4.191406 7.898438 -4.257812 9.082031 -4.433594 C 10.261719 -4.59375 11.203125 -4.808594 11.875 -5.050781 Z M 6.742188 -6.863281 C 7.308594 -8.90625 7.953125 -10.800781 8.703125 -12.546875 C 9.566406 -10.90625 10.34375 -9.175781 11.042969 -7.375 C 9.539062 -7.011719 8.113281 -6.835938 6.742188 -6.863281 Z M 6.742188 -6.863281 "/></g></g></g><g fill="#ffffff" fill-opacity="1"><g transform="translate(237.332749, 98.283495)"><g><path d="M 7.160156 -20.027344 C 6.972656 -20.148438 6.648438 -20.285156 6.191406 -20.417969 C 5.816406 -20.5 5.386719 -20.554688 4.929688 -20.59375 C 4.460938 -20.632812 4.042969 -20.605469 3.679688 -20.511719 C 3.359375 -20.433594 3.089844 -20.246094 2.847656 -19.949219 C 2.527344 -19.546875 2.242188 -19.023438 2.015625 -18.375 C 1.71875 -17.625 1.4375 -16.644531 1.183594 -15.421875 C 0.925781 -14.1875 0.710938 -12.910156 0.550781 -11.566406 C 0.390625 -10.222656 0.28125 -8.90625 0.226562 -7.628906 C 0.175781 -6.355469 0.214844 -5.292969 0.347656 -4.460938 C 0.402344 -4.03125 0.496094 -3.574219 0.644531 -3.089844 C 0.792969 -2.605469 1.0625 -2.230469 1.4375 -1.960938 C 1.855469 -1.640625 2.753906 -1.355469 4.152344 -1.128906 C 5.535156 -0.898438 6.273438 -1.222656 6.382812 -2.082031 C 6.394531 -2.3125 6.382812 -2.550781 6.328125 -2.792969 C 6.273438 -3.035156 6.246094 -3.277344 6.21875 -3.519531 C 5.964844 -5.078125 5.871094 -6.785156 5.949219 -8.652344 C 6.03125 -10.519531 6.21875 -12.359375 6.542969 -14.171875 C 7.777344 -12.34375 8.851562 -10.570312 9.78125 -8.851562 C 10.707031 -7.132812 11.554688 -5.226562 12.304688 -3.101562 C 12.359375 -2.671875 12.464844 -2.242188 12.628906 -1.8125 C 12.773438 -1.371094 13.03125 -1.019531 13.378906 -0.765625 C 13.582031 -0.605469 13.945312 -0.441406 14.46875 -0.28125 C 14.992188 -0.121094 15.527344 -0.0117188 16.078125 0.0390625 C 16.628906 0.09375 17.128906 0.0546875 17.570312 -0.0664062 C 18.015625 -0.1875 18.257812 -0.46875 18.308594 -0.898438 C 18.324219 -1.113281 18.308594 -1.355469 18.269531 -1.597656 C 18.214844 -1.839844 18.175781 -2.082031 18.148438 -2.324219 C 17.800781 -4.527344 17.757812 -7 18.042969 -9.753906 C 18.324219 -12.492188 18.792969 -14.992188 19.464844 -17.25 C 19.652344 -17.894531 19.597656 -18.351562 19.332031 -18.617188 C 19.046875 -18.886719 18.644531 -19.089844 18.121094 -19.222656 C 17.746094 -19.304688 17.328125 -19.359375 16.859375 -19.398438 C 16.390625 -19.4375 15.972656 -19.410156 15.609375 -19.332031 C 15.300781 -19.238281 15.03125 -19.046875 14.789062 -18.753906 C 14.480469 -18.363281 14.199219 -17.839844 13.945312 -17.195312 C 13.730469 -16.671875 13.527344 -16.027344 13.339844 -15.261719 C 13.152344 -14.496094 12.988281 -13.675781 12.84375 -12.789062 C 11.59375 -14.777344 10.34375 -16.550781 9.109375 -18.109375 C 8.867188 -18.390625 8.609375 -18.671875 8.355469 -18.96875 C 8.085938 -19.25 7.832031 -19.503906 7.5625 -19.746094 C 7.429688 -19.855469 7.292969 -19.949219 7.160156 -20.027344 Z M 7.160156 -20.027344 "/></g></g></g><g fill="#ffffff" fill-opacity="1"><g transform="translate(258.052413, 98.283495)"><g><path d="M 11.875 -5.050781 C 12.25 -3.800781 12.574219 -2.6875 12.816406 -1.691406 C 12.976562 -0.941406 13.257812 -0.523438 13.6875 -0.417969 C 14.105469 -0.308594 14.617188 -0.347656 15.207031 -0.511719 C 15.609375 -0.617188 16.039062 -0.777344 16.523438 -1.007812 C 16.992188 -1.222656 17.382812 -1.492188 17.707031 -1.800781 C 17.945312 -2.015625 18.121094 -2.351562 18.203125 -2.808594 C 18.269531 -3.34375 18.257812 -4.003906 18.148438 -4.796875 C 18.042969 -5.574219 17.746094 -6.769531 17.261719 -8.355469 C 16.777344 -9.941406 16.214844 -11.554688 15.542969 -13.21875 C 14.871094 -14.882812 14.132812 -16.402344 13.339844 -17.785156 C 12.546875 -19.15625 11.78125 -20.042969 11.054688 -20.445312 C 10.625 -20.796875 9.996094 -21.035156 9.160156 -21.171875 C 8.316406 -21.304688 7.644531 -21.320312 7.132812 -21.210938 C 6.621094 -21.105469 6.179688 -20.835938 5.804688 -20.417969 C 5.425781 -20.003906 5.105469 -19.585938 4.847656 -19.183594 C 4.324219 -18.375 3.789062 -17.300781 3.238281 -15.984375 C 2.6875 -14.65625 2.175781 -13.273438 1.71875 -11.835938 C 1.261719 -10.382812 0.875 -8.988281 0.5625 -7.617188 C 0.242188 -6.246094 0.0664062 -5.117188 0.0273438 -4.230469 C 0 -3.910156 0 -3.574219 0.0117188 -3.222656 C 0.0273438 -2.875 0.0820312 -2.550781 0.160156 -2.242188 C 0.253906 -1.828125 0.441406 -1.503906 0.726562 -1.277344 C 1.046875 -1.007812 1.464844 -0.777344 1.960938 -0.589844 C 2.457031 -0.402344 2.914062 -0.28125 3.332031 -0.214844 C 3.921875 -0.109375 4.433594 -0.121094 4.835938 -0.253906 C 5.238281 -0.390625 5.507812 -0.832031 5.628906 -1.597656 C 5.734375 -2.378906 5.882812 -3.265625 6.097656 -4.246094 C 6.90625 -4.191406 7.898438 -4.257812 9.082031 -4.433594 C 10.261719 -4.59375 11.203125 -4.808594 11.875 -5.050781 Z M 6.742188 -6.863281 C 7.308594 -8.90625 7.953125 -10.800781 8.703125 -12.546875 C 9.566406 -10.90625 10.34375 -9.175781 11.042969 -7.375 C 9.539062 -7.011719 8.113281 -6.835938 6.742188 -6.863281 Z M 6.742188 -6.863281 "/></g></g></g><g fill="#ffffff" fill-opacity="1"><g transform="translate(277.268122, 98.283495)"><g/></g></g><g fill="#ffffff" fill-opacity="1"><g transform="translate(284.08963, 98.283495)"><g><path d="M 4.164062 -20.339844 C 3.9375 -20.285156 3.707031 -20.246094 3.480469 -20.21875 C 3.238281 -20.191406 3.023438 -20.136719 2.820312 -20.082031 C 2.472656 -19.960938 2.191406 -19.746094 1.976562 -19.4375 C 1.679688 -19.023438 1.425781 -18.472656 1.195312 -17.773438 C 0.925781 -16.980469 0.710938 -15.945312 0.539062 -14.667969 C 0.347656 -13.378906 0.226562 -12.050781 0.160156 -10.652344 C 0.09375 -9.253906 0.09375 -7.898438 0.148438 -6.582031 C 0.203125 -5.265625 0.324219 -4.179688 0.523438 -3.316406 C 0.617188 -2.859375 0.765625 -2.40625 0.953125 -1.921875 C 1.140625 -1.4375 1.464844 -1.0625 1.894531 -0.820312 C 2.121094 -0.660156 2.527344 -0.523438 3.101562 -0.390625 C 3.679688 -0.253906 4.273438 -0.175781 4.875 -0.160156 C 5.46875 -0.148438 6.003906 -0.214844 6.476562 -0.375 C 6.933594 -0.539062 7.171875 -0.832031 7.199219 -1.289062 C 7.199219 -1.53125 7.160156 -1.773438 7.09375 -2.027344 C 7.011719 -2.269531 6.957031 -2.511719 6.90625 -2.753906 C 6.554688 -4.179688 6.328125 -5.816406 6.234375 -7.699219 C 7.414062 -7.617188 8.597656 -7.601562 9.804688 -7.671875 C 11.015625 -7.738281 11.78125 -7.964844 12.128906 -8.34375 C 12.398438 -8.636719 12.601562 -9.308594 12.761719 -10.382812 C 12.921875 -11.457031 12.601562 -12.0625 11.792969 -12.199219 C 11.40625 -12.25 10.679688 -12.304688 9.632812 -12.34375 C 8.570312 -12.386719 7.457031 -12.414062 6.300781 -12.4375 C 6.382812 -13.566406 6.5 -14.683594 6.664062 -15.757812 C 8.03125 -15.8125 9.363281 -15.785156 10.625 -15.648438 C 11.886719 -15.515625 13.246094 -15.21875 14.695312 -14.761719 C 14.898438 -14.683594 15.113281 -14.617188 15.339844 -14.535156 C 15.554688 -14.453125 15.785156 -14.402344 16 -14.402344 C 16.804688 -14.347656 17.207031 -14.953125 17.207031 -16.214844 C 17.207031 -17.476562 17.085938 -18.335938 16.871094 -18.765625 C 16.65625 -19.144531 16.347656 -19.425781 15.933594 -19.625 C 15.503906 -19.828125 15.097656 -19.988281 14.722656 -20.109375 C 13.179688 -20.578125 11.40625 -20.808594 9.390625 -20.796875 C 7.375 -20.78125 5.628906 -20.632812 4.164062 -20.339844 Z M 4.164062 -20.339844 "/></g></g></g><g fill="#ffffff" fill-opacity="1"><g transform="translate(302.150517, 98.283495)"><g><path d="M 11.875 -5.050781 C 12.25 -3.800781 12.574219 -2.6875 12.816406 -1.691406 C 12.976562 -0.941406 13.257812 -0.523438 13.6875 -0.417969 C 14.105469 -0.308594 14.617188 -0.347656 15.207031 -0.511719 C 15.609375 -0.617188 16.039062 -0.777344 16.523438 -1.007812 C 16.992188 -1.222656 17.382812 -1.492188 17.707031 -1.800781 C 17.945312 -2.015625 18.121094 -2.351562 18.203125 -2.808594 C 18.269531 -3.34375 18.257812 -4.003906 18.148438 -4.796875 C 18.042969 -5.574219 17.746094 -6.769531 17.261719 -8.355469 C 16.777344 -9.941406 16.214844 -11.554688 15.542969 -13.21875 C 14.871094 -14.882812 14.132812 -16.402344 13.339844 -17.785156 C 12.546875 -19.15625 11.78125 -20.042969 11.054688 -20.445312 C 10.625 -20.796875 9.996094 -21.035156 9.160156 -21.171875 C 8.316406 -21.304688 7.644531 -21.320312 7.132812 -21.210938 C 6.621094 -21.105469 6.179688 -20.835938 5.804688 -20.417969 C 5.425781 -20.003906 5.105469 -19.585938 4.847656 -19.183594 C 4.324219 -18.375 3.789062 -17.300781 3.238281 -15.984375 C 2.6875 -14.65625 2.175781 -13.273438 1.71875 -11.835938 C 1.261719 -10.382812 0.875 -8.988281 0.5625 -7.617188 C 0.242188 -6.246094 0.0664062 -5.117188 0.0273438 -4.230469 C 0 -3.910156 0 -3.574219 0.0117188 -3.222656 C 0.0273438 -2.875 0.0820312 -2.550781 0.160156 -2.242188 C 0.253906 -1.828125 0.441406 -1.503906 0.726562 -1.277344 C 1.046875 -1.007812 1.464844 -0.777344 1.960938 -0.589844 C 2.457031 -0.402344 2.914062 -0.28125 3.332031 -0.214844 C 3.921875 -0.109375 4.433594 -0.121094 4.835938 -0.253906 C 5.238281 -0.390625 5.507812 -0.832031 5.628906 -1.597656 C 5.734375 -2.378906 5.882812 -3.265625 6.097656 -4.246094 C 6.90625 -4.191406 7.898438 -4.257812 9.082031 -4.433594 C 10.261719 -4.59375 11.203125 -4.808594 11.875 -5.050781 Z M 6.742188 -6.863281 C 7.308594 -8.90625 7.953125 -10.800781 8.703125 -12.546875 C 9.566406 -10.90625 10.34375 -9.175781 11.042969 -7.375 C 9.539062 -7.011719 8.113281 -6.835938 6.742188 -6.863281 Z M 6.742188 -6.863281 "/></g></g></g><g fill="#ffffff" fill-opacity="1"><g transform="translate(321.366226, 98.283495)"><g><path d="M 0.242188 -15.675781 C 0.109375 -14.253906 0.148438 -12.761719 0.363281 -11.230469 C 0.5625 -9.699219 0.804688 -8.261719 1.101562 -6.945312 C 1.113281 -6.835938 1.128906 -6.730469 1.15625 -6.621094 C 1.183594 -6.515625 1.210938 -6.421875 1.234375 -6.328125 C 1.34375 -5.761719 1.625 -4.753906 2.054688 -3.277344 C 2.484375 -1.800781 2.886719 -0.886719 3.25 -0.511719 C 3.410156 -0.308594 3.628906 -0.1875 3.867188 -0.132812 C 4.109375 -0.0820312 4.367188 -0.0546875 4.609375 -0.0390625 C 4.945312 -0.0117188 5.320312 0 5.75 0 C 6.179688 0 6.554688 -0.0273438 6.90625 -0.0820312 C 7.199219 -0.109375 7.414062 -0.175781 7.550781 -0.28125 C 7.683594 -0.390625 7.738281 -0.617188 7.683594 -0.96875 C 7.578125 -1.53125 7.46875 -2.378906 7.375 -3.53125 C 7.28125 -4.675781 7.46875 -5.46875 7.9375 -5.910156 C 8.367188 -6.3125 8.773438 -6.449219 9.148438 -6.3125 C 9.523438 -6.179688 9.886719 -5.9375 10.25 -5.589844 C 10.867188 -4.917969 11.6875 -3.988281 12.734375 -2.808594 C 13.78125 -1.625 14.804688 -0.832031 15.796875 -0.441406 C 16.429688 -0.175781 17.007812 -0.214844 17.515625 -0.539062 C 17.90625 -0.777344 18.335938 -1.101562 18.792969 -1.519531 C 19.25 -1.933594 19.597656 -2.335938 19.867188 -2.714844 C 20.175781 -3.15625 20.097656 -3.519531 19.640625 -3.816406 C 19.476562 -3.894531 19.25 -4.03125 18.925781 -4.21875 C 18.792969 -4.285156 18.671875 -4.351562 18.550781 -4.417969 C 18.429688 -4.488281 18.308594 -4.566406 18.203125 -4.648438 C 17.878906 -4.835938 17.636719 -4.984375 17.492188 -5.089844 C 17.195312 -5.28125 16.980469 -5.441406 16.820312 -5.574219 C 16.617188 -5.722656 16.414062 -5.898438 16.226562 -6.113281 C 16.039062 -6.285156 15.890625 -6.488281 15.757812 -6.730469 C 15.625 -6.945312 15.515625 -7.171875 15.433594 -7.414062 C 15.328125 -7.65625 15.273438 -7.925781 15.273438 -8.222656 C 15.246094 -8.609375 15.355469 -8.972656 15.625 -9.324219 C 15.917969 -9.699219 16.253906 -10.035156 16.644531 -10.332031 C 17.019531 -10.625 17.328125 -11.003906 17.558594 -11.457031 C 18.09375 -12.535156 18.109375 -13.675781 17.609375 -14.855469 C 17.113281 -16.039062 16.441406 -17.019531 15.597656 -17.773438 C 13.742188 -19.382812 11.472656 -20.125 8.773438 -19.976562 C 6.070312 -19.828125 3.746094 -19.195312 1.785156 -18.066406 C 1.046875 -17.636719 0.617188 -17.300781 0.496094 -17.074219 C 0.375 -16.832031 0.296875 -16.375 0.242188 -15.675781 Z M 10.761719 -15.40625 C 11.203125 -15.273438 11.578125 -15.003906 11.902344 -14.617188 C 12.320312 -14.050781 12.398438 -13.445312 12.15625 -12.816406 C 11.902344 -12.183594 11.484375 -11.742188 10.921875 -11.472656 C 10.570312 -11.3125 10.210938 -11.191406 9.820312 -11.109375 C 9.429688 -11.027344 9.054688 -10.960938 8.691406 -10.933594 C 7.925781 -10.867188 7.335938 -11.070312 6.933594 -11.554688 C 6.730469 -11.769531 6.597656 -12.199219 6.515625 -12.828125 C 6.433594 -13.445312 6.449219 -13.917969 6.554688 -14.210938 C 6.742188 -14.710938 7.105469 -15.058594 7.628906 -15.261719 C 8.703125 -15.636719 9.753906 -15.691406 10.761719 -15.40625 Z M 10.761719 -15.40625 "/></g></g></g><g fill="#ffffff" fill-opacity="1"><g transform="translate(342.703586, 98.283495)"><g><path d="M 12.4375 -13.488281 C 11.902344 -15.207031 11.378906 -16.457031 10.839844 -17.261719 C 10.625 -17.542969 10.398438 -17.824219 10.183594 -18.109375 C 9.953125 -18.390625 9.726562 -18.644531 9.496094 -18.886719 C 9.363281 -18.996094 9.242188 -19.089844 9.121094 -19.167969 C 8.945312 -19.277344 8.636719 -19.410156 8.207031 -19.546875 C 7.832031 -19.613281 7.414062 -19.667969 6.957031 -19.707031 C 6.5 -19.734375 6.085938 -19.707031 5.710938 -19.613281 C 5.375 -19.53125 5.0625 -19.332031 4.796875 -19.035156 C 4.417969 -18.632812 4.082031 -18.109375 3.773438 -17.464844 C 3.386719 -16.710938 2.980469 -15.71875 2.578125 -14.480469 C 2.175781 -13.246094 1.800781 -11.96875 1.476562 -10.625 C 1.140625 -9.28125 0.875 -7.964844 0.671875 -6.691406 C 0.457031 -5.398438 0.363281 -4.339844 0.390625 -3.507812 C 0.390625 -3.078125 0.429688 -2.621094 0.523438 -2.136719 C 0.605469 -1.652344 0.820312 -1.289062 1.167969 -1.019531 C 1.542969 -0.699219 2.417969 -0.429688 3.789062 -0.214844 C 5.144531 0 5.925781 -0.324219 6.125 -1.183594 C 6.179688 -1.410156 6.191406 -1.652344 6.164062 -1.894531 C 6.140625 -2.136719 6.140625 -2.378906 6.152344 -2.621094 C 6.085938 -4.179688 6.207031 -5.882812 6.515625 -7.765625 C 6.8125 -9.632812 7.105469 -10.933594 7.375 -11.660156 C 7.644531 -12.386719 7.953125 -12.171875 8.316406 -10.988281 C 8.679688 -9.804688 9.066406 -8.410156 9.46875 -6.8125 C 9.875 -5.210938 10.140625 -4.179688 10.304688 -3.695312 C 10.453125 -3.210938 11.148438 -2.980469 12.386719 -2.980469 C 13.621094 -2.980469 14.304688 -3.222656 14.453125 -3.707031 C 14.589844 -4.191406 14.816406 -5.210938 15.125 -6.769531 C 15.433594 -8.328125 15.839844 -9.726562 16.320312 -10.960938 C 16.804688 -12.183594 17.167969 -12.4375 17.4375 -11.714844 C 17.691406 -10.988281 17.972656 -9.683594 18.269531 -7.816406 C 18.566406 -5.949219 18.6875 -4.246094 18.632812 -2.6875 C 18.632812 -2.445312 18.617188 -2.203125 18.605469 -1.960938 C 18.578125 -1.71875 18.59375 -1.476562 18.644531 -1.25 C 18.832031 -0.390625 19.585938 -0.0664062 20.902344 -0.296875 C 22.21875 -0.523438 23.050781 -0.804688 23.429688 -1.128906 C 23.75 -1.398438 23.953125 -1.773438 24.03125 -2.257812 C 24.113281 -2.742188 24.167969 -3.195312 24.167969 -3.628906 C 24.195312 -4.460938 24.097656 -5.519531 23.898438 -6.796875 C 23.695312 -8.074219 23.441406 -9.390625 23.117188 -10.734375 C 22.796875 -12.078125 22.445312 -13.351562 22.058594 -14.589844 C 21.667969 -15.8125 21.292969 -16.792969 20.914062 -17.542969 C 20.605469 -18.1875 20.269531 -18.710938 19.921875 -19.117188 C 19.652344 -19.410156 19.359375 -19.597656 19.0625 -19.679688 C 18.6875 -19.773438 18.28125 -19.800781 17.839844 -19.761719 C 17.394531 -19.71875 16.992188 -19.667969 16.644531 -19.585938 C 16.214844 -19.453125 15.917969 -19.316406 15.757812 -19.195312 C 15.636719 -19.117188 15.515625 -19.023438 15.40625 -18.914062 C 15.167969 -18.671875 14.953125 -18.417969 14.738281 -18.136719 C 14.523438 -17.839844 14.304688 -17.558594 14.117188 -17.273438 C 13.609375 -16.496094 13.042969 -15.234375 12.4375 -13.488281 Z M 12.4375 -13.488281 "/></g></g></g><g fill="#ffffff" fill-opacity="1"><g transform="translate(185.417719, 118.277719)"><g><path d="M 5.1875 -9.234375 C 5.289062 -9.210938 5.53125 -8.832031 5.90625 -8.09375 C 6.28125 -7.363281 6.738281 -6.421875 7.28125 -5.265625 L 7.765625 -4.265625 C 7.972656 -4.492188 8.164062 -4.757812 8.34375 -5.0625 C 8.519531 -5.363281 8.738281 -5.769531 9 -6.28125 C 9.300781 -6.863281 9.515625 -7.238281 9.640625 -7.40625 C 10.109375 -8.125 10.617188 -8.890625 11.171875 -9.703125 C 11.242188 -9.804688 11.367188 -9.878906 11.546875 -9.921875 C 11.578125 -9.929688 11.625 -9.9375 11.6875 -9.9375 C 11.925781 -9.9375 12.191406 -9.835938 12.484375 -9.640625 C 12.773438 -9.441406 12.960938 -9.238281 13.046875 -9.03125 C 13.066406 -8.988281 13.078125 -8.914062 13.078125 -8.8125 C 13.078125 -8.707031 13.070312 -8.632812 13.0625 -8.59375 C 13.039062 -8.5 13.019531 -8.382812 13 -8.25 C 12.976562 -8.125 12.957031 -7.972656 12.9375 -7.796875 C 12.613281 -5.390625 12.382812 -3.582031 12.25 -2.375 C 12.207031 -2.101562 12.1875 -1.796875 12.1875 -1.453125 L 12.171875 -0.96875 C 12.160156 -0.875 12.15625 -0.757812 12.15625 -0.625 C 12.15625 -0.5 12.140625 -0.410156 12.109375 -0.359375 C 12.078125 -0.316406 12.019531 -0.296875 11.9375 -0.296875 C 11.882812 -0.296875 11.796875 -0.3125 11.671875 -0.34375 C 11.359375 -0.40625 11.117188 -0.523438 10.953125 -0.703125 C 10.785156 -0.890625 10.691406 -1.148438 10.671875 -1.484375 C 10.660156 -1.648438 10.65625 -1.910156 10.65625 -2.265625 C 10.65625 -2.628906 10.664062 -3.1875 10.6875 -3.9375 L 10.703125 -4.75 L 10.734375 -5.90625 C 10.640625 -5.832031 10.410156 -5.523438 10.046875 -4.984375 C 9.691406 -4.453125 9.34375 -3.894531 9 -3.3125 C 8.65625 -2.726562 8.429688 -2.28125 8.328125 -1.96875 C 8.222656 -1.71875 8.125 -1.53125 8.03125 -1.40625 C 7.9375 -1.289062 7.828125 -1.234375 7.703125 -1.234375 C 7.585938 -1.234375 7.4375 -1.289062 7.25 -1.40625 C 6.707031 -1.726562 6.378906 -2.175781 6.265625 -2.75 C 6.078125 -3.625 5.847656 -4.535156 5.578125 -5.484375 C 5.523438 -5.660156 5.425781 -5.898438 5.28125 -6.203125 C 5.132812 -6.515625 5.046875 -6.707031 5.015625 -6.78125 L 4.8125 -7.171875 C 3.375 -5.253906 2.398438 -3.5 1.890625 -1.90625 C 1.796875 -1.570312 1.703125 -1.332031 1.609375 -1.1875 C 1.523438 -1.039062 1.421875 -0.96875 1.296875 -0.96875 C 1.109375 -0.96875 0.84375 -1.140625 0.5 -1.484375 C 0.238281 -1.710938 0.109375 -1.976562 0.109375 -2.28125 C 0.109375 -2.4375 0.132812 -2.59375 0.1875 -2.75 C 0.601562 -3.96875 1.222656 -5.125 2.046875 -6.21875 L 2.5 -6.828125 C 3.113281 -7.648438 3.582031 -8.289062 3.90625 -8.75 C 4.132812 -9.09375 4.445312 -9.265625 4.84375 -9.265625 C 4.914062 -9.265625 5.03125 -9.253906 5.1875 -9.234375 Z M 5.1875 -9.234375 "/></g></g></g><g fill="#ffffff" fill-opacity="1"><g transform="translate(199.230649, 118.277719)"><g><path d="M 3.96875 -0.984375 C 3.664062 -0.796875 3.316406 -0.703125 2.921875 -0.703125 C 2.492188 -0.703125 2.078125 -0.8125 1.671875 -1.03125 C 1.273438 -1.257812 0.957031 -1.578125 0.71875 -1.984375 C 0.488281 -2.398438 0.390625 -2.878906 0.421875 -3.421875 L 0.5 -3.765625 C 0.5625 -4.117188 0.613281 -4.378906 0.65625 -4.546875 C 0.738281 -4.910156 0.910156 -5.164062 1.171875 -5.3125 C 1.441406 -5.46875 1.800781 -5.585938 2.25 -5.671875 C 2.53125 -5.734375 2.8125 -5.765625 3.09375 -5.765625 C 3.957031 -5.765625 4.6875 -5.472656 5.28125 -4.890625 C 5.59375 -4.578125 5.75 -4.191406 5.75 -3.734375 C 5.75 -3.296875 5.585938 -2.820312 5.265625 -2.3125 C 4.890625 -1.726562 4.457031 -1.285156 3.96875 -0.984375 Z M 2.734375 -5.015625 C 2.578125 -4.628906 2.410156 -4.148438 2.234375 -3.578125 L 2.078125 -3.140625 L 2.1875 -3.09375 C 2.1875 -3.019531 2.1875 -2.910156 2.1875 -2.765625 C 2.195312 -2.628906 2.21875 -2.507812 2.25 -2.40625 C 2.351562 -2.101562 2.472656 -1.914062 2.609375 -1.84375 C 2.671875 -1.8125 2.757812 -1.828125 2.875 -1.890625 C 2.988281 -1.953125 3.085938 -2.019531 3.171875 -2.09375 C 3.316406 -2.21875 3.539062 -2.46875 3.84375 -2.84375 C 4.070312 -3.09375 4.1875 -3.394531 4.1875 -3.75 C 4.1875 -4.0625 4.097656 -4.335938 3.921875 -4.578125 C 3.753906 -4.828125 3.515625 -4.992188 3.203125 -5.078125 C 3.171875 -5.085938 3.117188 -5.09375 3.046875 -5.09375 C 2.859375 -5.09375 2.753906 -5.066406 2.734375 -5.015625 Z M 2.734375 -5.015625 "/></g></g></g><g fill="#ffffff" fill-opacity="1"><g transform="translate(205.391066, 118.277719)"><g><path d="M 3.109375 -5.578125 C 3.109375 -5.515625 3.097656 -5.4375 3.078125 -5.34375 C 3.054688 -5.25 3.050781 -5.1875 3.0625 -5.15625 C 3.738281 -5.300781 4.316406 -5.375 4.796875 -5.375 C 5.523438 -5.375 6.078125 -5.019531 6.453125 -4.3125 C 6.765625 -3.71875 6.921875 -3.054688 6.921875 -2.328125 C 6.921875 -2.140625 6.898438 -1.863281 6.859375 -1.5 C 6.828125 -1.269531 6.734375 -1.082031 6.578125 -0.9375 C 6.421875 -0.789062 6.234375 -0.71875 6.015625 -0.71875 C 5.785156 -0.71875 5.625 -0.757812 5.53125 -0.84375 C 5.4375 -0.925781 5.378906 -1.019531 5.359375 -1.125 C 5.347656 -1.238281 5.34375 -1.414062 5.34375 -1.65625 L 5.34375 -1.96875 C 5.320312 -2.5625 5.28125 -3.070312 5.21875 -3.5 C 5.1875 -3.675781 5.117188 -3.800781 5.015625 -3.875 C 4.910156 -3.945312 4.773438 -3.984375 4.609375 -3.984375 C 4.453125 -3.984375 4.265625 -3.960938 4.046875 -3.921875 C 3.710938 -3.828125 3.488281 -3.753906 3.375 -3.703125 C 3.257812 -3.660156 3.09375 -3.5625 2.875 -3.40625 C 2.8125 -3.351562 2.765625 -3.25 2.734375 -3.09375 C 2.703125 -2.945312 2.6875 -2.867188 2.6875 -2.859375 C 2.5625 -2.222656 2.425781 -1.46875 2.28125 -0.59375 C 2.269531 -0.550781 2.25 -0.457031 2.21875 -0.3125 C 2.1875 -0.164062 2.128906 -0.0625 2.046875 0 C 1.960938 0.0703125 1.84375 0.0976562 1.6875 0.078125 C 1.0625 -0.00390625 0.742188 -0.265625 0.734375 -0.703125 C 0.722656 -1.273438 0.769531 -1.953125 0.875 -2.734375 C 0.9375 -3.296875 1 -3.75 1.0625 -4.09375 C 1.082031 -4.25 1.109375 -4.441406 1.140625 -4.671875 C 1.179688 -4.898438 1.210938 -5.160156 1.234375 -5.453125 C 1.265625 -5.679688 1.296875 -5.847656 1.328125 -5.953125 C 1.359375 -6.066406 1.425781 -6.160156 1.53125 -6.234375 C 1.644531 -6.304688 1.816406 -6.34375 2.046875 -6.34375 C 2.328125 -6.34375 2.5625 -6.273438 2.75 -6.140625 C 2.9375 -6.015625 3.054688 -5.835938 3.109375 -5.609375 Z M 3.109375 -5.578125 "/></g></g></g><g fill="#ffffff" fill-opacity="1"><g transform="translate(213.02881, 118.277719)"><g><path d="M 2.375 -6.640625 C 2.375 -6.585938 2.363281 -6.46875 2.34375 -6.28125 C 2.320312 -6.101562 2.3125 -5.960938 2.3125 -5.859375 C 2.3125 -5.773438 2.316406 -5.722656 2.328125 -5.703125 L 2.765625 -6.125 C 2.921875 -6.300781 3.054688 -6.4375 3.171875 -6.53125 C 3.429688 -6.769531 3.695312 -6.890625 3.96875 -6.890625 C 4.175781 -6.890625 4.335938 -6.804688 4.453125 -6.640625 C 4.503906 -6.535156 4.53125 -6.421875 4.53125 -6.296875 C 4.53125 -6.203125 4.515625 -6.128906 4.484375 -6.078125 C 4.328125 -5.847656 4.0625 -5.507812 3.6875 -5.0625 C 3.53125 -4.894531 3.453125 -4.738281 3.453125 -4.59375 C 3.453125 -4.457031 3.523438 -4.304688 3.671875 -4.140625 C 3.785156 -4.003906 3.953125 -3.796875 4.171875 -3.515625 C 4.585938 -2.972656 4.960938 -2.535156 5.296875 -2.203125 C 5.628906 -1.878906 6.007812 -1.609375 6.4375 -1.390625 C 6.488281 -1.367188 6.53125 -1.320312 6.5625 -1.25 C 6.59375 -1.175781 6.601562 -1.117188 6.59375 -1.078125 C 6.582031 -1.023438 6.539062 -0.972656 6.46875 -0.921875 C 6.40625 -0.878906 6.347656 -0.863281 6.296875 -0.875 C 6.148438 -0.914062 6.023438 -0.941406 5.921875 -0.953125 C 5.410156 -1.046875 5.046875 -1.164062 4.828125 -1.3125 C 4.472656 -1.5625 3.972656 -1.988281 3.328125 -2.59375 C 2.929688 -2.957031 2.726562 -3.144531 2.71875 -3.15625 L 2.453125 -3.421875 C 2.242188 -3.617188 2.140625 -3.71875 2.140625 -3.71875 C 2.117188 -3.675781 2.109375 -3.601562 2.109375 -3.5 C 2.109375 -3.414062 2.113281 -3.320312 2.125 -3.21875 C 2.144531 -3.113281 2.148438 -3.039062 2.140625 -3 C 2.078125 -1.894531 2.039062 -1.085938 2.03125 -0.578125 C 2.007812 -0.253906 1.929688 -0.0078125 1.796875 0.15625 C 1.660156 0.320312 1.472656 0.390625 1.234375 0.359375 C 1.160156 0.347656 1.078125 0.304688 0.984375 0.234375 C 0.890625 0.171875 0.832031 0.101562 0.8125 0.03125 C 0.707031 -0.40625 0.65625 -0.828125 0.65625 -1.234375 C 0.65625 -2.429688 0.664062 -3.617188 0.6875 -4.796875 L 0.84375 -9.625 C 0.851562 -10.144531 1.125 -10.40625 1.65625 -10.40625 C 2.019531 -10.40625 2.285156 -10.332031 2.453125 -10.1875 C 2.617188 -10.050781 2.691406 -9.835938 2.671875 -9.546875 L 2.53125 -8.046875 C 2.488281 -7.703125 2.4375 -7.234375 2.375 -6.640625 Z M 2.375 -6.640625 "/></g></g></g><g fill="#ffffff" fill-opacity="1"><g transform="translate(220.046073, 118.277719)"><g><path d="M 3.421875 -2.3125 C 3.328125 -2.25 3.1875 -2.21875 3 -2.21875 C 2.925781 -2.21875 2.835938 -2.222656 2.734375 -2.234375 C 2.640625 -2.242188 2.5625 -2.242188 2.5 -2.234375 C 2.570312 -1.910156 2.753906 -1.644531 3.046875 -1.4375 C 3.347656 -1.238281 3.679688 -1.140625 4.046875 -1.140625 C 4.359375 -1.140625 4.640625 -1.207031 4.890625 -1.34375 C 5.253906 -1.53125 5.570312 -1.753906 5.84375 -2.015625 C 6.03125 -2.203125 6.207031 -2.296875 6.375 -2.296875 C 6.476562 -2.296875 6.570312 -2.238281 6.65625 -2.125 C 6.726562 -2 6.765625 -1.84375 6.765625 -1.65625 C 6.765625 -1.457031 6.726562 -1.304688 6.65625 -1.203125 C 6.394531 -0.804688 6.0625 -0.53125 5.65625 -0.375 C 5.25 -0.226562 4.773438 -0.15625 4.234375 -0.15625 C 3.671875 -0.15625 3.125 -0.28125 2.59375 -0.53125 C 2.070312 -0.78125 1.625 -1.117188 1.25 -1.546875 C 0.882812 -1.972656 0.644531 -2.445312 0.53125 -2.96875 C 0.445312 -3.269531 0.40625 -3.570312 0.40625 -3.875 C 0.40625 -4.332031 0.535156 -4.703125 0.796875 -4.984375 C 1.066406 -5.273438 1.488281 -5.550781 2.0625 -5.8125 C 2.601562 -6.039062 3.097656 -6.15625 3.546875 -6.15625 C 3.867188 -6.15625 4.1875 -6.101562 4.5 -6 C 5.4375 -5.707031 5.90625 -5.304688 5.90625 -4.796875 C 5.90625 -4.460938 5.71875 -4.066406 5.34375 -3.609375 C 5.15625 -3.390625 4.929688 -3.195312 4.671875 -3.03125 C 4.410156 -2.863281 4.160156 -2.710938 3.921875 -2.578125 C 3.679688 -2.441406 3.515625 -2.351562 3.421875 -2.3125 Z M 4.046875 -5.046875 C 4.035156 -5.085938 4 -5.125 3.9375 -5.15625 C 3.875 -5.195312 3.835938 -5.222656 3.828125 -5.234375 C 3.554688 -5.253906 3.28125 -5.175781 3 -5 C 2.726562 -4.832031 2.5 -4.613281 2.3125 -4.34375 C 2.132812 -4.082031 2.046875 -3.828125 2.046875 -3.578125 L 2.0625 -3.453125 C 2.070312 -3.421875 2.125 -3.375 2.21875 -3.3125 C 2.3125 -3.25 2.367188 -3.226562 2.390625 -3.25 C 3.085938 -3.769531 3.613281 -4.191406 3.96875 -4.515625 C 4.03125 -4.566406 4.0625 -4.671875 4.0625 -4.828125 C 4.0625 -4.929688 4.054688 -5.003906 4.046875 -5.046875 Z M 4.046875 -5.046875 "/></g></g></g><g fill="#ffffff" fill-opacity="1"><g transform="translate(226.959929, 118.277719)"><g><path d="M 0.46875 4.171875 C 0.539062 4.148438 0.628906 4.117188 0.734375 4.078125 C 0.847656 4.046875 0.941406 4.023438 1.015625 4.015625 C 1.722656 3.992188 2.242188 3.84375 2.578125 3.5625 C 2.910156 3.289062 3.117188 2.804688 3.203125 2.109375 C 3.296875 1.410156 3.382812 0.363281 3.46875 -1.03125 L 3.53125 -1.984375 C 3.539062 -2.210938 3.5 -2.382812 3.40625 -2.5 C 3.3125 -2.625 3.140625 -2.703125 2.890625 -2.734375 C 2.359375 -2.796875 1.898438 -3.003906 1.515625 -3.359375 C 1.128906 -3.710938 0.859375 -4.160156 0.703125 -4.703125 C 0.660156 -4.867188 0.609375 -5.066406 0.546875 -5.296875 C 0.429688 -5.722656 0.347656 -6.046875 0.296875 -6.265625 L 0.296875 -6.296875 C 0.296875 -6.359375 0.3125 -6.425781 0.34375 -6.5 C 0.382812 -6.570312 0.425781 -6.625 0.46875 -6.65625 C 0.625 -6.757812 0.804688 -6.8125 1.015625 -6.8125 C 1.296875 -6.8125 1.539062 -6.710938 1.75 -6.515625 C 1.96875 -6.328125 2.09375 -6.09375 2.125 -5.8125 C 2.175781 -5.363281 2.257812 -4.878906 2.375 -4.359375 C 2.425781 -4.148438 2.519531 -4.046875 2.65625 -4.046875 C 2.769531 -4.046875 2.863281 -4.101562 2.9375 -4.21875 C 3.195312 -4.539062 3.394531 -4.851562 3.53125 -5.15625 C 3.695312 -5.53125 3.941406 -5.71875 4.265625 -5.71875 C 4.359375 -5.71875 4.425781 -5.710938 4.46875 -5.703125 C 4.976562 -5.609375 5.222656 -5.296875 5.203125 -4.765625 L 5.15625 -3.390625 C 5.113281 -2.160156 5.070312 -1.25 5.03125 -0.65625 L 4.984375 -0.0625 C 4.921875 0.75 4.863281 1.378906 4.8125 1.828125 C 4.757812 2.273438 4.671875 2.722656 4.546875 3.171875 C 4.398438 3.742188 4.128906 4.171875 3.734375 4.453125 C 3.335938 4.734375 2.875 4.875 2.34375 4.875 C 1.925781 4.875 1.503906 4.789062 1.078125 4.625 C 0.992188 4.582031 0.890625 4.53125 0.765625 4.46875 C 0.648438 4.40625 0.5625 4.351562 0.5 4.3125 Z M 0.46875 4.171875 "/></g></g></g><g fill="#ffffff" fill-opacity="1"><g transform="translate(233.002169, 118.277719)"><g/></g></g><g fill="#ffffff" fill-opacity="1"><g transform="translate(236.695468, 118.277719)"><g><path d="M 1.1875 -4.53125 C 1.175781 -4.601562 1.171875 -4.71875 1.171875 -4.875 C 1.171875 -5.257812 1.207031 -5.632812 1.28125 -6 C 1.363281 -6.363281 1.476562 -6.765625 1.625 -7.203125 C 1.769531 -7.597656 2.050781 -8 2.46875 -8.40625 C 2.882812 -8.8125 3.347656 -9.144531 3.859375 -9.40625 C 4.367188 -9.664062 4.832031 -9.796875 5.25 -9.796875 C 5.675781 -9.796875 6.085938 -9.640625 6.484375 -9.328125 C 6.890625 -9.023438 7.144531 -8.675781 7.25 -8.28125 C 7.269531 -8.15625 7.28125 -8.078125 7.28125 -8.046875 C 7.28125 -7.890625 7.238281 -7.773438 7.15625 -7.703125 C 7.070312 -7.628906 6.960938 -7.59375 6.828125 -7.59375 C 6.722656 -7.59375 6.640625 -7.597656 6.578125 -7.609375 C 6.546875 -7.609375 6.5 -7.628906 6.4375 -7.671875 C 6.15625 -7.828125 5.878906 -7.90625 5.609375 -7.90625 C 5.109375 -7.90625 4.613281 -7.644531 4.125 -7.125 C 3.289062 -6.25 2.875 -5.203125 2.875 -3.984375 C 2.875 -3.554688 2.914062 -3.140625 3 -2.734375 C 3.09375 -2.273438 3.265625 -1.941406 3.515625 -1.734375 C 3.773438 -1.523438 4.113281 -1.421875 4.53125 -1.421875 C 4.6875 -1.421875 4.851562 -1.4375 5.03125 -1.46875 C 5.644531 -1.539062 6.210938 -1.726562 6.734375 -2.03125 C 7.265625 -2.332031 7.84375 -2.734375 8.46875 -3.234375 C 8.613281 -3.359375 8.875 -3.601562 9.25 -3.96875 L 9.546875 -4.28125 C 9.671875 -4.414062 9.78125 -4.507812 9.875 -4.5625 C 9.96875 -4.613281 10.054688 -4.640625 10.140625 -4.640625 C 10.265625 -4.640625 10.421875 -4.578125 10.609375 -4.453125 C 10.816406 -4.304688 10.921875 -4.117188 10.921875 -3.890625 C 10.921875 -3.734375 10.867188 -3.582031 10.765625 -3.4375 C 10.722656 -3.375 10.613281 -3.21875 10.4375 -2.96875 C 10.257812 -2.71875 10.085938 -2.492188 9.921875 -2.296875 C 9.753906 -2.097656 9.585938 -1.925781 9.421875 -1.78125 C 8.515625 -0.988281 7.566406 -0.453125 6.578125 -0.171875 C 6.140625 -0.0546875 5.707031 0 5.28125 0 C 4.476562 0 3.769531 -0.203125 3.15625 -0.609375 C 2.539062 -1.015625 2.0625 -1.539062 1.71875 -2.1875 C 1.375 -2.84375 1.195312 -3.53125 1.1875 -4.25 Z M 1.1875 -4.53125 "/></g></g></g><g fill="#ffffff" fill-opacity="1"><g transform="translate(247.908322, 118.277719)"><g><path d="M 5.25 -0.75 C 5.15625 -0.789062 5.066406 -0.8125 4.984375 -0.8125 C 4.890625 -0.8125 4.8125 -0.789062 4.75 -0.75 C 4.6875 -0.707031 4.613281 -0.640625 4.53125 -0.546875 C 4.414062 -0.429688 4.296875 -0.332031 4.171875 -0.25 C 4.046875 -0.175781 3.828125 -0.113281 3.515625 -0.0625 C 3.378906 -0.0390625 3.265625 -0.03125 3.171875 -0.03125 C 2.765625 -0.03125 2.335938 -0.117188 1.890625 -0.296875 C 1.441406 -0.484375 1.125 -0.703125 0.9375 -0.953125 C 0.738281 -1.234375 0.644531 -1.53125 0.65625 -1.84375 C 0.664062 -2.320312 0.859375 -2.796875 1.234375 -3.265625 C 1.609375 -3.722656 1.953125 -4.046875 2.265625 -4.234375 C 2.578125 -4.421875 3.003906 -4.535156 3.546875 -4.578125 C 3.660156 -4.578125 3.828125 -4.597656 4.046875 -4.640625 C 4.273438 -4.679688 4.390625 -4.734375 4.390625 -4.796875 C 4.390625 -4.941406 4.328125 -5.066406 4.203125 -5.171875 C 4.078125 -5.285156 3.828125 -5.34375 3.453125 -5.34375 C 3.316406 -5.34375 3.113281 -5.335938 2.84375 -5.328125 C 2.5625 -5.304688 2.367188 -5.296875 2.265625 -5.296875 C 1.929688 -5.296875 1.6875 -5.347656 1.53125 -5.453125 C 1.5 -5.472656 1.484375 -5.566406 1.484375 -5.734375 C 1.484375 -6.023438 1.582031 -6.210938 1.78125 -6.296875 C 2.207031 -6.453125 2.648438 -6.535156 3.109375 -6.546875 C 3.679688 -6.546875 4.207031 -6.421875 4.6875 -6.171875 C 5.175781 -5.921875 5.535156 -5.609375 5.765625 -5.234375 C 5.992188 -4.859375 6.140625 -4.34375 6.203125 -3.6875 C 6.285156 -2.945312 6.328125 -2.003906 6.328125 -0.859375 C 6.328125 -0.546875 6.28125 -0.363281 6.1875 -0.3125 C 6.113281 -0.257812 6.039062 -0.234375 5.96875 -0.234375 C 5.882812 -0.234375 5.800781 -0.257812 5.71875 -0.3125 C 5.644531 -0.375 5.566406 -0.453125 5.484375 -0.546875 C 5.390625 -0.648438 5.3125 -0.71875 5.25 -0.75 Z M 2.90625 -0.9375 C 3.375 -1.070312 3.828125 -1.289062 4.265625 -1.59375 C 4.367188 -1.664062 4.457031 -1.753906 4.53125 -1.859375 C 4.613281 -1.972656 4.664062 -2.039062 4.6875 -2.0625 C 4.707031 -2.09375 4.722656 -2.179688 4.734375 -2.328125 C 4.753906 -2.472656 4.757812 -2.585938 4.75 -2.671875 C 4.738281 -2.703125 4.71875 -2.78125 4.6875 -2.90625 C 4.664062 -3.039062 4.628906 -3.15625 4.578125 -3.25 C 4.535156 -3.332031 4.457031 -3.40625 4.34375 -3.46875 C 4.238281 -3.539062 4.140625 -3.570312 4.046875 -3.5625 C 3.859375 -3.550781 3.65625 -3.476562 3.4375 -3.34375 C 3.226562 -3.21875 3.03125 -3.050781 2.84375 -2.84375 C 2.65625 -2.613281 2.507812 -2.378906 2.40625 -2.140625 C 2.300781 -1.910156 2.25 -1.695312 2.25 -1.5 C 2.269531 -1.238281 2.34375 -1.0625 2.46875 -0.96875 C 2.539062 -0.925781 2.625 -0.90625 2.71875 -0.90625 C 2.800781 -0.90625 2.863281 -0.914062 2.90625 -0.9375 Z M 2.90625 -0.9375 "/></g></g></g><g fill="#ffffff" fill-opacity="1"><g transform="translate(255.058543, 118.277719)"><g><path d="M 2 0.328125 C 1.164062 0.328125 0.632812 -0.0234375 0.40625 -0.734375 C 0.488281 -0.734375 0.597656 -0.726562 0.734375 -0.71875 C 0.867188 -0.71875 0.976562 -0.707031 1.0625 -0.6875 C 1.195312 -0.675781 1.296875 -0.671875 1.359375 -0.671875 C 1.804688 -0.671875 2.175781 -0.863281 2.46875 -1.25 C 2.675781 -1.539062 2.78125 -1.832031 2.78125 -2.125 C 2.78125 -2.320312 2.726562 -2.515625 2.625 -2.703125 C 2.414062 -3.085938 2.148438 -3.507812 1.828125 -3.96875 C 1.617188 -4.28125 1.429688 -4.570312 1.265625 -4.84375 C 1.066406 -5.164062 0.96875 -5.515625 0.96875 -5.890625 C 0.96875 -6.253906 1.066406 -6.570312 1.265625 -6.84375 C 1.472656 -7.113281 1.773438 -7.28125 2.171875 -7.34375 L 2.640625 -7.4375 C 3.160156 -7.53125 3.546875 -7.578125 3.796875 -7.578125 C 4.222656 -7.578125 4.597656 -7.476562 4.921875 -7.28125 C 4.992188 -7.238281 5.066406 -7.15625 5.140625 -7.03125 C 5.210938 -6.90625 5.269531 -6.804688 5.3125 -6.734375 C 5.238281 -6.710938 5.140625 -6.664062 5.015625 -6.59375 C 4.890625 -6.53125 4.785156 -6.492188 4.703125 -6.484375 C 4.566406 -6.460938 4.359375 -6.453125 4.078125 -6.453125 C 3.816406 -6.453125 3.613281 -6.445312 3.46875 -6.4375 C 3.15625 -6.414062 2.90625 -6.3125 2.71875 -6.125 C 2.539062 -5.945312 2.453125 -5.726562 2.453125 -5.46875 C 2.453125 -5.269531 2.507812 -5.066406 2.625 -4.859375 C 2.894531 -4.421875 3.265625 -3.914062 3.734375 -3.34375 C 4.085938 -2.894531 4.265625 -2.4375 4.265625 -1.96875 C 4.265625 -1.707031 4.207031 -1.4375 4.09375 -1.15625 C 3.6875 -0.164062 2.988281 0.328125 2 0.328125 Z M 2 0.328125 "/></g></g></g><g fill="#ffffff" fill-opacity="1"><g transform="translate(260.08143, 118.277719)"><g><path d="M 2.125 -6.890625 C 2.101562 -6.828125 2.03125 -6.757812 1.90625 -6.6875 C 1.789062 -6.625 1.691406 -6.5625 1.609375 -6.5 L 1.203125 -6.71875 C 0.796875 -6.9375 0.519531 -7.113281 0.375 -7.25 C 0.289062 -7.300781 0.25 -7.375 0.25 -7.46875 C 0.25 -7.519531 0.269531 -7.566406 0.3125 -7.609375 C 0.363281 -7.660156 0.429688 -7.6875 0.515625 -7.6875 C 0.898438 -7.6875 1.367188 -7.585938 1.921875 -7.390625 C 1.984375 -7.378906 2.035156 -7.3125 2.078125 -7.1875 C 2.128906 -7.0625 2.144531 -6.960938 2.125 -6.890625 Z M 0.796875 -4.140625 C 0.828125 -4.265625 0.847656 -4.359375 0.859375 -4.421875 C 0.867188 -4.484375 0.875 -4.546875 0.875 -4.609375 C 0.875 -4.742188 0.914062 -4.851562 1 -4.9375 C 1.082031 -5.019531 1.242188 -5.0625 1.484375 -5.0625 C 1.753906 -5.0625 1.992188 -4.972656 2.203125 -4.796875 C 2.421875 -4.617188 2.550781 -4.394531 2.59375 -4.125 C 2.625 -3.988281 2.644531 -3.835938 2.65625 -3.671875 C 2.664062 -3.503906 2.671875 -3.394531 2.671875 -3.34375 L 2.875 -0.8125 C 2.90625 -0.539062 2.867188 -0.332031 2.765625 -0.1875 C 2.660156 -0.0507812 2.46875 0.015625 2.1875 0.015625 C 1.9375 0.015625 1.722656 -0.0507812 1.546875 -0.1875 C 1.378906 -0.332031 1.273438 -0.507812 1.234375 -0.71875 L 0.859375 -3.859375 Z M 0.796875 -4.140625 "/></g></g></g><g fill="#ffffff" fill-opacity="1"><g transform="translate(263.479263, 118.277719)"><g><path d="M 3.109375 -5.578125 C 3.109375 -5.515625 3.097656 -5.4375 3.078125 -5.34375 C 3.054688 -5.25 3.050781 -5.1875 3.0625 -5.15625 C 3.738281 -5.300781 4.316406 -5.375 4.796875 -5.375 C 5.523438 -5.375 6.078125 -5.019531 6.453125 -4.3125 C 6.765625 -3.71875 6.921875 -3.054688 6.921875 -2.328125 C 6.921875 -2.140625 6.898438 -1.863281 6.859375 -1.5 C 6.828125 -1.269531 6.734375 -1.082031 6.578125 -0.9375 C 6.421875 -0.789062 6.234375 -0.71875 6.015625 -0.71875 C 5.785156 -0.71875 5.625 -0.757812 5.53125 -0.84375 C 5.4375 -0.925781 5.378906 -1.019531 5.359375 -1.125 C 5.347656 -1.238281 5.34375 -1.414062 5.34375 -1.65625 L 5.34375 -1.96875 C 5.320312 -2.5625 5.28125 -3.070312 5.21875 -3.5 C 5.1875 -3.675781 5.117188 -3.800781 5.015625 -3.875 C 4.910156 -3.945312 4.773438 -3.984375 4.609375 -3.984375 C 4.453125 -3.984375 4.265625 -3.960938 4.046875 -3.921875 C 3.710938 -3.828125 3.488281 -3.753906 3.375 -3.703125 C 3.257812 -3.660156 3.09375 -3.5625 2.875 -3.40625 C 2.8125 -3.351562 2.765625 -3.25 2.734375 -3.09375 C 2.703125 -2.945312 2.6875 -2.867188 2.6875 -2.859375 C 2.5625 -2.222656 2.425781 -1.46875 2.28125 -0.59375 C 2.269531 -0.550781 2.25 -0.457031 2.21875 -0.3125 C 2.1875 -0.164062 2.128906 -0.0625 2.046875 0 C 1.960938 0.0703125 1.84375 0.0976562 1.6875 0.078125 C 1.0625 -0.00390625 0.742188 -0.265625 0.734375 -0.703125 C 0.722656 -1.273438 0.769531 -1.953125 0.875 -2.734375 C 0.9375 -3.296875 1 -3.75 1.0625 -4.09375 C 1.082031 -4.25 1.109375 -4.441406 1.140625 -4.671875 C 1.179688 -4.898438 1.210938 -5.160156 1.234375 -5.453125 C 1.265625 -5.679688 1.296875 -5.847656 1.328125 -5.953125 C 1.359375 -6.066406 1.425781 -6.160156 1.53125 -6.234375 C 1.644531 -6.304688 1.816406 -6.34375 2.046875 -6.34375 C 2.328125 -6.34375 2.5625 -6.273438 2.75 -6.140625 C 2.9375 -6.015625 3.054688 -5.835938 3.109375 -5.609375 Z M 3.109375 -5.578125 "/></g></g></g><g fill="#ffffff" fill-opacity="1"><g transform="translate(271.117007, 118.277719)"><g><path d="M 3.96875 -0.984375 C 3.664062 -0.796875 3.316406 -0.703125 2.921875 -0.703125 C 2.492188 -0.703125 2.078125 -0.8125 1.671875 -1.03125 C 1.273438 -1.257812 0.957031 -1.578125 0.71875 -1.984375 C 0.488281 -2.398438 0.390625 -2.878906 0.421875 -3.421875 L 0.5 -3.765625 C 0.5625 -4.117188 0.613281 -4.378906 0.65625 -4.546875 C 0.738281 -4.910156 0.910156 -5.164062 1.171875 -5.3125 C 1.441406 -5.46875 1.800781 -5.585938 2.25 -5.671875 C 2.53125 -5.734375 2.8125 -5.765625 3.09375 -5.765625 C 3.957031 -5.765625 4.6875 -5.472656 5.28125 -4.890625 C 5.59375 -4.578125 5.75 -4.191406 5.75 -3.734375 C 5.75 -3.296875 5.585938 -2.820312 5.265625 -2.3125 C 4.890625 -1.726562 4.457031 -1.285156 3.96875 -0.984375 Z M 2.734375 -5.015625 C 2.578125 -4.628906 2.410156 -4.148438 2.234375 -3.578125 L 2.078125 -3.140625 L 2.1875 -3.09375 C 2.1875 -3.019531 2.1875 -2.910156 2.1875 -2.765625 C 2.195312 -2.628906 2.21875 -2.507812 2.25 -2.40625 C 2.351562 -2.101562 2.472656 -1.914062 2.609375 -1.84375 C 2.671875 -1.8125 2.757812 -1.828125 2.875 -1.890625 C 2.988281 -1.953125 3.085938 -2.019531 3.171875 -2.09375 C 3.316406 -2.21875 3.539062 -2.46875 3.84375 -2.84375 C 4.070312 -3.09375 4.1875 -3.394531 4.1875 -3.75 C 4.1875 -4.0625 4.097656 -4.335938 3.921875 -4.578125 C 3.753906 -4.828125 3.515625 -4.992188 3.203125 -5.078125 C 3.171875 -5.085938 3.117188 -5.09375 3.046875 -5.09375 C 2.859375 -5.09375 2.753906 -5.066406 2.734375 -5.015625 Z M 2.734375 -5.015625 "/></g></g></g><g fill="#ffffff" fill-opacity="1"><g transform="translate(277.277425, 118.277719)"><g/></g></g><g fill="#ffffff" fill-opacity="1"><g transform="translate(280.970723, 118.277719)"><g><path d="M 3.96875 -0.984375 C 3.664062 -0.796875 3.316406 -0.703125 2.921875 -0.703125 C 2.492188 -0.703125 2.078125 -0.8125 1.671875 -1.03125 C 1.273438 -1.257812 0.957031 -1.578125 0.71875 -1.984375 C 0.488281 -2.398438 0.390625 -2.878906 0.421875 -3.421875 L 0.5 -3.765625 C 0.5625 -4.117188 0.613281 -4.378906 0.65625 -4.546875 C 0.738281 -4.910156 0.910156 -5.164062 1.171875 -5.3125 C 1.441406 -5.46875 1.800781 -5.585938 2.25 -5.671875 C 2.53125 -5.734375 2.8125 -5.765625 3.09375 -5.765625 C 3.957031 -5.765625 4.6875 -5.472656 5.28125 -4.890625 C 5.59375 -4.578125 5.75 -4.191406 5.75 -3.734375 C 5.75 -3.296875 5.585938 -2.820312 5.265625 -2.3125 C 4.890625 -1.726562 4.457031 -1.285156 3.96875 -0.984375 Z M 2.734375 -5.015625 C 2.578125 -4.628906 2.410156 -4.148438 2.234375 -3.578125 L 2.078125 -3.140625 L 2.1875 -3.09375 C 2.1875 -3.019531 2.1875 -2.910156 2.1875 -2.765625 C 2.195312 -2.628906 2.21875 -2.507812 2.25 -2.40625 C 2.351562 -2.101562 2.472656 -1.914062 2.609375 -1.84375 C 2.671875 -1.8125 2.757812 -1.828125 2.875 -1.890625 C 2.988281 -1.953125 3.085938 -2.019531 3.171875 -2.09375 C 3.316406 -2.21875 3.539062 -2.46875 3.84375 -2.84375 C 4.070312 -3.09375 4.1875 -3.394531 4.1875 -3.75 C 4.1875 -4.0625 4.097656 -4.335938 3.921875 -4.578125 C 3.753906 -4.828125 3.515625 -4.992188 3.203125 -5.078125 C 3.171875 -5.085938 3.117188 -5.09375 3.046875 -5.09375 C 2.859375 -5.09375 2.753906 -5.066406 2.734375 -5.015625 Z M 2.734375 -5.015625 "/></g></g></g><g fill="#ffffff" fill-opacity="1"><g transform="translate(287.131141, 118.277719)"><g><path d="M 3.109375 -5.578125 C 3.109375 -5.515625 3.097656 -5.4375 3.078125 -5.34375 C 3.054688 -5.25 3.050781 -5.1875 3.0625 -5.15625 C 3.738281 -5.300781 4.316406 -5.375 4.796875 -5.375 C 5.523438 -5.375 6.078125 -5.019531 6.453125 -4.3125 C 6.765625 -3.71875 6.921875 -3.054688 6.921875 -2.328125 C 6.921875 -2.140625 6.898438 -1.863281 6.859375 -1.5 C 6.828125 -1.269531 6.734375 -1.082031 6.578125 -0.9375 C 6.421875 -0.789062 6.234375 -0.71875 6.015625 -0.71875 C 5.785156 -0.71875 5.625 -0.757812 5.53125 -0.84375 C 5.4375 -0.925781 5.378906 -1.019531 5.359375 -1.125 C 5.347656 -1.238281 5.34375 -1.414062 5.34375 -1.65625 L 5.34375 -1.96875 C 5.320312 -2.5625 5.28125 -3.070312 5.21875 -3.5 C 5.1875 -3.675781 5.117188 -3.800781 5.015625 -3.875 C 4.910156 -3.945312 4.773438 -3.984375 4.609375 -3.984375 C 4.453125 -3.984375 4.265625 -3.960938 4.046875 -3.921875 C 3.710938 -3.828125 3.488281 -3.753906 3.375 -3.703125 C 3.257812 -3.660156 3.09375 -3.5625 2.875 -3.40625 C 2.8125 -3.351562 2.765625 -3.25 2.734375 -3.09375 C 2.703125 -2.945312 2.6875 -2.867188 2.6875 -2.859375 C 2.5625 -2.222656 2.425781 -1.46875 2.28125 -0.59375 C 2.269531 -0.550781 2.25 -0.457031 2.21875 -0.3125 C 2.1875 -0.164062 2.128906 -0.0625 2.046875 0 C 1.960938 0.0703125 1.84375 0.0976562 1.6875 0.078125 C 1.0625 -0.00390625 0.742188 -0.265625 0.734375 -0.703125 C 0.722656 -1.273438 0.769531 -1.953125 0.875 -2.734375 C 0.9375 -3.296875 1 -3.75 1.0625 -4.09375 C 1.082031 -4.25 1.109375 -4.441406 1.140625 -4.671875 C 1.179688 -4.898438 1.210938 -5.160156 1.234375 -5.453125 C 1.265625 -5.679688 1.296875 -5.847656 1.328125 -5.953125 C 1.359375 -6.066406 1.425781 -6.160156 1.53125 -6.234375 C 1.644531 -6.304688 1.816406 -6.34375 2.046875 -6.34375 C 2.328125 -6.34375 2.5625 -6.273438 2.75 -6.140625 C 2.9375 -6.015625 3.054688 -5.835938 3.109375 -5.609375 Z M 3.109375 -5.578125 "/></g></g></g><g fill="#ffffff" fill-opacity="1"><g transform="translate(294.768884, 118.277719)"><g/></g></g><g fill="#ffffff" fill-opacity="1"><g transform="translate(298.462183, 118.277719)"><g><path d="M 6.71875 -10.53125 C 6.96875 -10.425781 7.09375 -10.285156 7.09375 -10.109375 C 7.09375 -9.929688 6.96875 -9.707031 6.71875 -9.4375 C 6.613281 -9.4375 6.457031 -9.4375 6.25 -9.4375 C 5.800781 -9.4375 5.367188 -9.375 4.953125 -9.25 C 4.535156 -9.132812 4.109375 -8.945312 3.671875 -8.6875 C 3.460938 -8.5625 3.285156 -8.398438 3.140625 -8.203125 C 3.023438 -8.085938 2.96875 -7.953125 2.96875 -7.796875 C 2.96875 -7.523438 3.117188 -7.265625 3.421875 -7.015625 C 3.703125 -6.722656 4.164062 -6.1875 4.8125 -5.40625 L 5.15625 -5.0625 C 5.644531 -4.53125 6.023438 -4.082031 6.296875 -3.71875 C 6.578125 -3.351562 6.816406 -2.9375 7.015625 -2.46875 C 7.097656 -2.257812 7.140625 -2.070312 7.140625 -1.90625 C 7.140625 -1.476562 6.976562 -1.085938 6.65625 -0.734375 C 6.28125 -0.328125 5.84375 -0.03125 5.34375 0.15625 C 4.851562 0.351562 4.300781 0.476562 3.6875 0.53125 C 3.601562 0.539062 3.503906 0.550781 3.390625 0.5625 C 3.285156 0.570312 3.164062 0.578125 3.03125 0.578125 C 2.9375 0.578125 2.800781 0.566406 2.625 0.546875 C 2.414062 0.554688 2.191406 0.519531 1.953125 0.4375 C 1.710938 0.351562 1.492188 0.234375 1.296875 0.078125 C 0.921875 -0.242188 0.734375 -0.59375 0.734375 -0.96875 C 0.734375 -1.300781 0.875 -1.632812 1.15625 -1.96875 C 1.289062 -1.945312 1.367188 -1.90625 1.390625 -1.84375 C 1.421875 -1.78125 1.425781 -1.707031 1.40625 -1.625 C 1.394531 -1.539062 1.390625 -1.476562 1.390625 -1.4375 C 1.390625 -1.40625 1.398438 -1.359375 1.421875 -1.296875 C 1.804688 -1.117188 2.265625 -1.03125 2.796875 -1.03125 C 3.390625 -1.03125 3.945312 -1.128906 4.46875 -1.328125 C 5 -1.535156 5.320312 -1.785156 5.4375 -2.078125 C 5.507812 -2.273438 5.34375 -2.625 4.9375 -3.125 C 4.53125 -3.625 4.078125 -4.109375 3.578125 -4.578125 C 3.109375 -5.003906 2.679688 -5.425781 2.296875 -5.84375 C 2.078125 -6.070312 1.90625 -6.34375 1.78125 -6.65625 C 1.65625 -6.96875 1.59375 -7.289062 1.59375 -7.625 C 1.59375 -8.082031 1.707031 -8.507812 1.9375 -8.90625 C 2.175781 -9.3125 2.523438 -9.644531 2.984375 -9.90625 C 3.867188 -10.40625 4.773438 -10.65625 5.703125 -10.65625 C 5.828125 -10.65625 6.007812 -10.644531 6.25 -10.625 C 6.46875 -10.601562 6.625 -10.570312 6.71875 -10.53125 Z M 6.71875 -10.53125 "/></g></g></g><g fill="#ffffff" fill-opacity="1"><g transform="translate(306.336292, 118.277719)"><g><path d="M 3.96875 -0.984375 C 3.664062 -0.796875 3.316406 -0.703125 2.921875 -0.703125 C 2.492188 -0.703125 2.078125 -0.8125 1.671875 -1.03125 C 1.273438 -1.257812 0.957031 -1.578125 0.71875 -1.984375 C 0.488281 -2.398438 0.390625 -2.878906 0.421875 -3.421875 L 0.5 -3.765625 C 0.5625 -4.117188 0.613281 -4.378906 0.65625 -4.546875 C 0.738281 -4.910156 0.910156 -5.164062 1.171875 -5.3125 C 1.441406 -5.46875 1.800781 -5.585938 2.25 -5.671875 C 2.53125 -5.734375 2.8125 -5.765625 3.09375 -5.765625 C 3.957031 -5.765625 4.6875 -5.472656 5.28125 -4.890625 C 5.59375 -4.578125 5.75 -4.191406 5.75 -3.734375 C 5.75 -3.296875 5.585938 -2.820312 5.265625 -2.3125 C 4.890625 -1.726562 4.457031 -1.285156 3.96875 -0.984375 Z M 2.734375 -5.015625 C 2.578125 -4.628906 2.410156 -4.148438 2.234375 -3.578125 L 2.078125 -3.140625 L 2.1875 -3.09375 C 2.1875 -3.019531 2.1875 -2.910156 2.1875 -2.765625 C 2.195312 -2.628906 2.21875 -2.507812 2.25 -2.40625 C 2.351562 -2.101562 2.472656 -1.914062 2.609375 -1.84375 C 2.671875 -1.8125 2.757812 -1.828125 2.875 -1.890625 C 2.988281 -1.953125 3.085938 -2.019531 3.171875 -2.09375 C 3.316406 -2.21875 3.539062 -2.46875 3.84375 -2.84375 C 4.070312 -3.09375 4.1875 -3.394531 4.1875 -3.75 C 4.1875 -4.0625 4.097656 -4.335938 3.921875 -4.578125 C 3.753906 -4.828125 3.515625 -4.992188 3.203125 -5.078125 C 3.171875 -5.085938 3.117188 -5.09375 3.046875 -5.09375 C 2.859375 -5.09375 2.753906 -5.066406 2.734375 -5.015625 Z M 2.734375 -5.015625 "/></g></g></g><g fill="#ffffff" fill-opacity="1"><g transform="translate(312.49671, 118.277719)"><g><path d="M 2.4375 -0.6875 C 2.632812 -0.914062 2.78125 -1.097656 2.875 -1.234375 C 2.976562 -1.390625 3.085938 -1.46875 3.203125 -1.46875 C 3.328125 -1.46875 3.414062 -1.390625 3.46875 -1.234375 C 3.613281 -0.847656 3.6875 -0.539062 3.6875 -0.3125 C 3.6875 -0.207031 3.679688 -0.132812 3.671875 -0.09375 C 3.628906 0.101562 3.515625 0.238281 3.328125 0.3125 C 3.148438 0.394531 2.9375 0.425781 2.6875 0.40625 C 2.601562 0.40625 2.453125 0.40625 2.234375 0.40625 C 2.023438 0.40625 1.84375 0.375 1.6875 0.3125 C 1.539062 0.257812 1.40625 0.164062 1.28125 0.03125 C 1.03125 -0.269531 0.90625 -0.566406 0.90625 -0.859375 C 0.90625 -3.160156 0.894531 -4.894531 0.875 -6.0625 L 0.859375 -8.65625 C 0.859375 -9 0.820312 -9.316406 0.75 -9.609375 C 0.738281 -9.660156 0.734375 -9.71875 0.734375 -9.78125 C 0.734375 -10.144531 0.984375 -10.328125 1.484375 -10.328125 C 1.804688 -10.328125 2.078125 -10.222656 2.296875 -10.015625 C 2.515625 -9.804688 2.613281 -9.523438 2.59375 -9.171875 C 2.570312 -8.648438 2.535156 -7.867188 2.484375 -6.828125 L 2.390625 -5.0625 C 2.316406 -3.382812 2.265625 -2.125 2.234375 -1.28125 C 2.222656 -1.1875 2.226562 -1.078125 2.25 -0.953125 C 2.269531 -0.835938 2.285156 -0.765625 2.296875 -0.734375 Z M 2.4375 -0.6875 "/></g></g></g><g fill="#ffffff" fill-opacity="1"><g transform="translate(316.485474, 118.277719)"><g><path d="M 5.25 -0.75 C 5.15625 -0.789062 5.066406 -0.8125 4.984375 -0.8125 C 4.890625 -0.8125 4.8125 -0.789062 4.75 -0.75 C 4.6875 -0.707031 4.613281 -0.640625 4.53125 -0.546875 C 4.414062 -0.429688 4.296875 -0.332031 4.171875 -0.25 C 4.046875 -0.175781 3.828125 -0.113281 3.515625 -0.0625 C 3.378906 -0.0390625 3.265625 -0.03125 3.171875 -0.03125 C 2.765625 -0.03125 2.335938 -0.117188 1.890625 -0.296875 C 1.441406 -0.484375 1.125 -0.703125 0.9375 -0.953125 C 0.738281 -1.234375 0.644531 -1.53125 0.65625 -1.84375 C 0.664062 -2.320312 0.859375 -2.796875 1.234375 -3.265625 C 1.609375 -3.722656 1.953125 -4.046875 2.265625 -4.234375 C 2.578125 -4.421875 3.003906 -4.535156 3.546875 -4.578125 C 3.660156 -4.578125 3.828125 -4.597656 4.046875 -4.640625 C 4.273438 -4.679688 4.390625 -4.734375 4.390625 -4.796875 C 4.390625 -4.941406 4.328125 -5.066406 4.203125 -5.171875 C 4.078125 -5.285156 3.828125 -5.34375 3.453125 -5.34375 C 3.316406 -5.34375 3.113281 -5.335938 2.84375 -5.328125 C 2.5625 -5.304688 2.367188 -5.296875 2.265625 -5.296875 C 1.929688 -5.296875 1.6875 -5.347656 1.53125 -5.453125 C 1.5 -5.472656 1.484375 -5.566406 1.484375 -5.734375 C 1.484375 -6.023438 1.582031 -6.210938 1.78125 -6.296875 C 2.207031 -6.453125 2.648438 -6.535156 3.109375 -6.546875 C 3.679688 -6.546875 4.207031 -6.421875 4.6875 -6.171875 C 5.175781 -5.921875 5.535156 -5.609375 5.765625 -5.234375 C 5.992188 -4.859375 6.140625 -4.34375 6.203125 -3.6875 C 6.285156 -2.945312 6.328125 -2.003906 6.328125 -0.859375 C 6.328125 -0.546875 6.28125 -0.363281 6.1875 -0.3125 C 6.113281 -0.257812 6.039062 -0.234375 5.96875 -0.234375 C 5.882812 -0.234375 5.800781 -0.257812 5.71875 -0.3125 C 5.644531 -0.375 5.566406 -0.453125 5.484375 -0.546875 C 5.390625 -0.648438 5.3125 -0.71875 5.25 -0.75 Z M 2.90625 -0.9375 C 3.375 -1.070312 3.828125 -1.289062 4.265625 -1.59375 C 4.367188 -1.664062 4.457031 -1.753906 4.53125 -1.859375 C 4.613281 -1.972656 4.664062 -2.039062 4.6875 -2.0625 C 4.707031 -2.09375 4.722656 -2.179688 4.734375 -2.328125 C 4.753906 -2.472656 4.757812 -2.585938 4.75 -2.671875 C 4.738281 -2.703125 4.71875 -2.78125 4.6875 -2.90625 C 4.664062 -3.039062 4.628906 -3.15625 4.578125 -3.25 C 4.535156 -3.332031 4.457031 -3.40625 4.34375 -3.46875 C 4.238281 -3.539062 4.140625 -3.570312 4.046875 -3.5625 C 3.859375 -3.550781 3.65625 -3.476562 3.4375 -3.34375 C 3.226562 -3.21875 3.03125 -3.050781 2.84375 -2.84375 C 2.65625 -2.613281 2.507812 -2.378906 2.40625 -2.140625 C 2.300781 -1.910156 2.25 -1.695312 2.25 -1.5 C 2.269531 -1.238281 2.34375 -1.0625 2.46875 -0.96875 C 2.539062 -0.925781 2.625 -0.90625 2.71875 -0.90625 C 2.800781 -0.90625 2.863281 -0.914062 2.90625 -0.9375 Z M 2.90625 -0.9375 "/></g></g></g><g fill="#ffffff" fill-opacity="1"><g transform="translate(323.635695, 118.277719)"><g><path d="M 3.109375 -5.578125 C 3.109375 -5.515625 3.097656 -5.4375 3.078125 -5.34375 C 3.054688 -5.25 3.050781 -5.1875 3.0625 -5.15625 C 3.738281 -5.300781 4.316406 -5.375 4.796875 -5.375 C 5.523438 -5.375 6.078125 -5.019531 6.453125 -4.3125 C 6.765625 -3.71875 6.921875 -3.054688 6.921875 -2.328125 C 6.921875 -2.140625 6.898438 -1.863281 6.859375 -1.5 C 6.828125 -1.269531 6.734375 -1.082031 6.578125 -0.9375 C 6.421875 -0.789062 6.234375 -0.71875 6.015625 -0.71875 C 5.785156 -0.71875 5.625 -0.757812 5.53125 -0.84375 C 5.4375 -0.925781 5.378906 -1.019531 5.359375 -1.125 C 5.347656 -1.238281 5.34375 -1.414062 5.34375 -1.65625 L 5.34375 -1.96875 C 5.320312 -2.5625 5.28125 -3.070312 5.21875 -3.5 C 5.1875 -3.675781 5.117188 -3.800781 5.015625 -3.875 C 4.910156 -3.945312 4.773438 -3.984375 4.609375 -3.984375 C 4.453125 -3.984375 4.265625 -3.960938 4.046875 -3.921875 C 3.710938 -3.828125 3.488281 -3.753906 3.375 -3.703125 C 3.257812 -3.660156 3.09375 -3.5625 2.875 -3.40625 C 2.8125 -3.351562 2.765625 -3.25 2.734375 -3.09375 C 2.703125 -2.945312 2.6875 -2.867188 2.6875 -2.859375 C 2.5625 -2.222656 2.425781 -1.46875 2.28125 -0.59375 C 2.269531 -0.550781 2.25 -0.457031 2.21875 -0.3125 C 2.1875 -0.164062 2.128906 -0.0625 2.046875 0 C 1.960938 0.0703125 1.84375 0.0976562 1.6875 0.078125 C 1.0625 -0.00390625 0.742188 -0.265625 0.734375 -0.703125 C 0.722656 -1.273438 0.769531 -1.953125 0.875 -2.734375 C 0.9375 -3.296875 1 -3.75 1.0625 -4.09375 C 1.082031 -4.25 1.109375 -4.441406 1.140625 -4.671875 C 1.179688 -4.898438 1.210938 -5.160156 1.234375 -5.453125 C 1.265625 -5.679688 1.296875 -5.847656 1.328125 -5.953125 C 1.359375 -6.066406 1.425781 -6.160156 1.53125 -6.234375 C 1.644531 -6.304688 1.816406 -6.34375 2.046875 -6.34375 C 2.328125 -6.34375 2.5625 -6.273438 2.75 -6.140625 C 2.9375 -6.015625 3.054688 -5.835938 3.109375 -5.609375 Z M 3.109375 -5.578125 "/></g></g></g><g fill="#ffffff" fill-opacity="1"><g transform="translate(331.273438, 118.277719)"><g><path d="M 5.25 -0.75 C 5.15625 -0.789062 5.066406 -0.8125 4.984375 -0.8125 C 4.890625 -0.8125 4.8125 -0.789062 4.75 -0.75 C 4.6875 -0.707031 4.613281 -0.640625 4.53125 -0.546875 C 4.414062 -0.429688 4.296875 -0.332031 4.171875 -0.25 C 4.046875 -0.175781 3.828125 -0.113281 3.515625 -0.0625 C 3.378906 -0.0390625 3.265625 -0.03125 3.171875 -0.03125 C 2.765625 -0.03125 2.335938 -0.117188 1.890625 -0.296875 C 1.441406 -0.484375 1.125 -0.703125 0.9375 -0.953125 C 0.738281 -1.234375 0.644531 -1.53125 0.65625 -1.84375 C 0.664062 -2.320312 0.859375 -2.796875 1.234375 -3.265625 C 1.609375 -3.722656 1.953125 -4.046875 2.265625 -4.234375 C 2.578125 -4.421875 3.003906 -4.535156 3.546875 -4.578125 C 3.660156 -4.578125 3.828125 -4.597656 4.046875 -4.640625 C 4.273438 -4.679688 4.390625 -4.734375 4.390625 -4.796875 C 4.390625 -4.941406 4.328125 -5.066406 4.203125 -5.171875 C 4.078125 -5.285156 3.828125 -5.34375 3.453125 -5.34375 C 3.316406 -5.34375 3.113281 -5.335938 2.84375 -5.328125 C 2.5625 -5.304688 2.367188 -5.296875 2.265625 -5.296875 C 1.929688 -5.296875 1.6875 -5.347656 1.53125 -5.453125 C 1.5 -5.472656 1.484375 -5.566406 1.484375 -5.734375 C 1.484375 -6.023438 1.582031 -6.210938 1.78125 -6.296875 C 2.207031 -6.453125 2.648438 -6.535156 3.109375 -6.546875 C 3.679688 -6.546875 4.207031 -6.421875 4.6875 -6.171875 C 5.175781 -5.921875 5.535156 -5.609375 5.765625 -5.234375 C 5.992188 -4.859375 6.140625 -4.34375 6.203125 -3.6875 C 6.285156 -2.945312 6.328125 -2.003906 6.328125 -0.859375 C 6.328125 -0.546875 6.28125 -0.363281 6.1875 -0.3125 C 6.113281 -0.257812 6.039062 -0.234375 5.96875 -0.234375 C 5.882812 -0.234375 5.800781 -0.257812 5.71875 -0.3125 C 5.644531 -0.375 5.566406 -0.453125 5.484375 -0.546875 C 5.390625 -0.648438 5.3125 -0.71875 5.25 -0.75 Z M 2.90625 -0.9375 C 3.375 -1.070312 3.828125 -1.289062 4.265625 -1.59375 C 4.367188 -1.664062 4.457031 -1.753906 4.53125 -1.859375 C 4.613281 -1.972656 4.664062 -2.039062 4.6875 -2.0625 C 4.707031 -2.09375 4.722656 -2.179688 4.734375 -2.328125 C 4.753906 -2.472656 4.757812 -2.585938 4.75 -2.671875 C 4.738281 -2.703125 4.71875 -2.78125 4.6875 -2.90625 C 4.664062 -3.039062 4.628906 -3.15625 4.578125 -3.25 C 4.535156 -3.332031 4.457031 -3.40625 4.34375 -3.46875 C 4.238281 -3.539062 4.140625 -3.570312 4.046875 -3.5625 C 3.859375 -3.550781 3.65625 -3.476562 3.4375 -3.34375 C 3.226562 -3.21875 3.03125 -3.050781 2.84375 -2.84375 C 2.65625 -2.613281 2.507812 -2.378906 2.40625 -2.140625 C 2.300781 -1.910156 2.25 -1.695312 2.25 -1.5 C 2.269531 -1.238281 2.34375 -1.0625 2.46875 -0.96875 C 2.539062 -0.925781 2.625 -0.90625 2.71875 -0.90625 C 2.800781 -0.90625 2.863281 -0.914062 2.90625 -0.9375 Z M 2.90625 -0.9375 "/></g></g></g></svg>