<svg xmlns="http://www.w3.org/2000/svg" xmlns:xlink="http://www.w3.org/1999/xlink" width="500" zoomAndPan="magnify" viewBox="0 0 375 374.999991" height="500" preserveAspectRatio="xMidYMid meet" version="1.0"><defs><clipPath id="e8115bcc71"><path d="M 3.660156 34.453125 L 371.160156 34.453125 L 371.160156 340.453125 L 3.660156 340.453125 Z M 3.660156 34.453125 " clip-rule="nonzero"/></clipPath></defs><g clip-path="url(#e8115bcc71)"><path fill="#5d2808" d="M 187.496094 34.453125 C 141.117188 34.453125 86.429688 71.535156 70.058594 139.386719 C 63.707031 135.484375 55.761719 132.402344 46.023438 132.402344 C 23.5 132.402344 3.839844 152.820312 3.839844 181.378906 C 3.839844 198.402344 12.410156 214.9375 23.378906 228.773438 C 33.203125 241.167969 44.816406 252.203125 59.726562 254.386719 C 77.507812 301.570312 127.945312 340.546875 187.496094 340.546875 C 247.050781 340.546875 297.488281 301.570312 315.269531 254.386719 C 330.175781 252.203125 341.792969 241.167969 351.617188 228.773438 C 362.585938 214.9375 371.152344 198.402344 371.152344 181.378906 C 371.152344 152.820312 351.496094 132.402344 328.96875 132.402344 C 319.234375 132.402344 311.289062 135.484375 304.9375 139.386719 C 288.566406 71.535156 233.878906 34.453125 187.496094 34.453125 Z M 150.765625 144.648438 C 165.484375 144.648438 178.523438 149.621094 187.496094 157.320312 C 196.472656 149.621094 209.511719 144.648438 224.230469 144.648438 C 251.277344 144.648438 273.203125 161.089844 273.203125 181.378906 C 273.203125 189.714844 269.367188 197.316406 263.136719 203.472656 C 277.082031 213.953125 285.449219 227.34375 285.449219 241.976562 C 285.449219 275.449219 241.589844 316.058594 187.496094 316.058594 C 133.40625 316.058594 89.546875 275.449219 89.546875 241.976562 C 89.546875 227.34375 97.914062 213.953125 111.859375 203.472656 C 105.628906 197.316406 101.792969 189.714844 101.792969 181.378906 C 101.792969 161.089844 123.71875 144.648438 150.765625 144.648438 Z M 46.023438 156.890625 C 56.363281 156.890625 63.242188 164.605469 65.65625 167.769531 C 65.339844 172.226562 65.058594 176.714844 65.058594 181.378906 C 65.058594 192.410156 52.816406 195.128906 52.816406 218.109375 C 52.816406 219.992188 53.039062 221.871094 53.152344 223.753906 C 49.621094 221.054688 45.898438 217.777344 42.558594 213.566406 C 34.113281 202.914062 28.328125 188.839844 28.328125 181.378906 C 28.328125 162.601562 37.035156 156.890625 46.023438 156.890625 Z M 328.96875 156.890625 C 337.960938 156.890625 346.667969 162.601562 346.667969 181.378906 C 346.667969 188.839844 340.882812 202.914062 332.4375 213.566406 C 329.097656 217.777344 325.371094 221.054688 321.84375 223.753906 C 321.957031 221.871094 322.179688 219.992188 322.179688 218.109375 C 322.179688 195.128906 309.933594 192.410156 309.933594 181.378906 C 309.933594 176.714844 309.65625 172.226562 309.335938 167.769531 C 311.753906 164.605469 318.632812 156.890625 328.96875 156.890625 Z M 150.765625 169.132812 C 149.960938 169.132812 149.167969 169.210938 148.378906 169.371094 C 147.589844 169.527344 146.824219 169.757812 146.082031 170.066406 C 145.339844 170.375 144.632812 170.75 143.964844 171.199219 C 143.296875 171.644531 142.675781 172.152344 142.109375 172.71875 C 141.539062 173.289062 141.03125 173.90625 140.585938 174.574219 C 140.140625 175.246094 139.761719 175.949219 139.453125 176.691406 C 139.148438 177.433594 138.914062 178.199219 138.757812 178.988281 C 138.601562 179.777344 138.523438 180.574219 138.523438 181.378906 C 138.523438 182.183594 138.601562 182.976562 138.757812 183.765625 C 138.914062 184.554688 139.148438 185.320312 139.453125 186.0625 C 139.761719 186.804688 140.140625 187.511719 140.585938 188.179688 C 141.03125 188.847656 141.539062 189.46875 142.109375 190.035156 C 142.675781 190.605469 143.296875 191.113281 143.964844 191.558594 C 144.632812 192.003906 145.339844 192.382812 146.082031 192.691406 C 146.824219 192.996094 147.589844 193.230469 148.378906 193.386719 C 149.167969 193.542969 149.960938 193.621094 150.765625 193.621094 C 151.570312 193.621094 152.367188 193.542969 153.15625 193.386719 C 153.945312 193.230469 154.710938 192.996094 155.453125 192.691406 C 156.195312 192.382812 156.898438 192.003906 157.570312 191.558594 C 158.238281 191.113281 158.855469 190.605469 159.425781 190.035156 C 159.992188 189.46875 160.5 188.847656 160.945312 188.179688 C 161.394531 187.511719 161.769531 186.804688 162.078125 186.0625 C 162.386719 185.320312 162.617188 184.554688 162.773438 183.765625 C 162.933594 182.976562 163.011719 182.183594 163.011719 181.378906 C 163.011719 180.574219 162.933594 179.777344 162.773438 178.988281 C 162.617188 178.199219 162.386719 177.433594 162.078125 176.691406 C 161.769531 175.949219 161.394531 175.246094 160.945312 174.574219 C 160.5 173.90625 159.992188 173.289062 159.425781 172.71875 C 158.855469 172.152344 158.238281 171.644531 157.570312 171.199219 C 156.898438 170.75 156.195312 170.375 155.453125 170.066406 C 154.710938 169.757812 153.945312 169.527344 153.15625 169.371094 C 152.367188 169.210938 151.570312 169.132812 150.765625 169.132812 Z M 224.230469 169.132812 C 223.425781 169.132812 222.628906 169.210938 221.839844 169.371094 C 221.050781 169.527344 220.285156 169.757812 219.542969 170.066406 C 218.800781 170.375 218.09375 170.75 217.425781 171.199219 C 216.757812 171.644531 216.140625 172.152344 215.570312 172.71875 C 215.003906 173.289062 214.496094 173.90625 214.046875 174.574219 C 213.601562 175.246094 213.226562 175.949219 212.917969 176.691406 C 212.609375 177.433594 212.378906 178.199219 212.21875 178.988281 C 212.0625 179.777344 211.984375 180.574219 211.984375 181.378906 C 211.984375 182.183594 212.0625 182.976562 212.21875 183.765625 C 212.378906 184.554688 212.609375 185.320312 212.917969 186.0625 C 213.226562 186.804688 213.601562 187.511719 214.046875 188.179688 C 214.496094 188.847656 215.003906 189.46875 215.570312 190.035156 C 216.140625 190.605469 216.757812 191.113281 217.425781 191.558594 C 218.09375 192.003906 218.800781 192.382812 219.542969 192.691406 C 220.285156 192.996094 221.050781 193.230469 221.839844 193.386719 C 222.628906 193.542969 223.425781 193.621094 224.230469 193.621094 C 225.03125 193.621094 225.828125 193.542969 226.617188 193.386719 C 227.40625 193.230469 228.171875 192.996094 228.914062 192.691406 C 229.65625 192.382812 230.363281 192.003906 231.03125 191.558594 C 231.699219 191.113281 232.316406 190.605469 232.886719 190.035156 C 233.457031 189.46875 233.960938 188.847656 234.410156 188.179688 C 234.855469 187.511719 235.234375 186.804688 235.539062 186.0625 C 235.847656 185.320312 236.082031 184.554688 236.238281 183.765625 C 236.394531 182.976562 236.472656 182.183594 236.472656 181.378906 C 236.472656 180.574219 236.394531 179.777344 236.238281 178.988281 C 236.082031 178.199219 235.847656 177.433594 235.539062 176.691406 C 235.234375 175.949219 234.855469 175.246094 234.410156 174.574219 C 233.960938 173.90625 233.457031 173.289062 232.886719 172.71875 C 232.316406 172.152344 231.699219 171.644531 231.03125 171.199219 C 230.363281 170.75 229.65625 170.375 228.914062 170.066406 C 228.171875 169.757812 227.40625 169.527344 226.617188 169.371094 C 225.828125 169.210938 225.03125 169.132812 224.230469 169.132812 Z M 181.375 211.988281 C 171.238281 211.988281 163.011719 220.214844 163.011719 230.351562 L 211.984375 230.351562 C 211.984375 220.214844 203.757812 211.988281 193.621094 211.988281 C 191.464844 211.988281 189.421875 212.425781 187.496094 213.113281 C 185.574219 212.425781 183.53125 211.988281 181.375 211.988281 Z M 181.375 211.988281 " fill-opacity="1" fill-rule="nonzero"/></g></svg>